<svg width="176" height="176" viewBox="0 0 176 176" fill="none" xmlns="http://www.w3.org/2000/svg">
<path d="M48.8889 73.3335H63.5556V124.667H48.8889V73.3335Z" fill="white" fill-opacity="0.3"/>
<path d="M56.2222 62.3333C60.9473 62.3333 64.7777 58.5028 64.7777 53.7777C64.7777 49.0526 60.9473 45.2222 56.2222 45.2222C51.4971 45.2222 47.6666 49.0526 47.6666 53.7777C47.6666 58.5028 51.4971 62.3333 56.2222 62.3333Z" fill="white" fill-opacity="0.3"/>
<path d="M103.889 85.5558C98.4891 85.5558 94.1111 88.4109 94.1111 96.5558V124.667H79.4445V73.3336H94.1111V78.7358H94.1062C95.9397 76.6513 98.1968 74.9821 100.727 73.8398C103.257 72.6974 106.002 72.1081 108.778 72.1113C119.577 72.1113 128.333 80.178 128.333 94.1113V124.667H113.667V96.5558C113.667 88.4109 109.291 85.5558 103.889 85.5558Z" fill="white" fill-opacity="0.3"/>
<path d="M141.778 26.8887H34.2222C30.1722 26.8887 26.8889 30.1719 26.8889 34.222V141.778C26.8889 145.828 30.1722 149.111 34.2222 149.111H141.778C145.828 149.111 149.111 145.828 149.111 141.778V34.222C149.111 30.1719 145.828 26.8887 141.778 26.8887Z" stroke="#200824" stroke-width="3" stroke-miterlimit="10"/>
<path d="M48.8889 73.333H63.5556V124.666H48.8889V73.333Z" stroke="#200824" stroke-width="3" stroke-linecap="round" stroke-linejoin="round"/>
<path d="M56.2223 62.3333C60.9474 62.3333 64.7779 58.5028 64.7779 53.7777C64.7779 49.0526 60.9474 45.2222 56.2223 45.2222C51.4972 45.2222 47.6667 49.0526 47.6667 53.7777C47.6667 58.5028 51.4972 62.3333 56.2223 62.3333Z" stroke="#200824" stroke-width="3" stroke-linecap="round" stroke-linejoin="round"/>
<path d="M103.889 85.5553C98.4891 85.5553 94.1111 88.4104 94.1111 96.5553V124.666H79.4445V73.3331H94.1111V78.7353H94.1062C95.9397 76.6508 98.1968 74.9817 100.727 73.8393C103.257 72.6969 106.002 72.1076 108.778 72.1109C119.577 72.1109 128.333 80.1775 128.333 94.1109V124.666H113.667V96.5553C113.667 88.4104 109.291 85.5553 103.889 85.5553Z" stroke="#200824" stroke-width="3" stroke-linecap="round" stroke-linejoin="round"/>
</svg>
