<svg width="144" height="178" viewBox="0 0 144 178" fill="none" xmlns="http://www.w3.org/2000/svg">
<g filter="url(#filter0_dddddd_240_1354)">
<path d="M53.8219 34.1293C55.3418 32.9577 58.4602 31.7183 62.0639 31.2221C65.6536 30.7279 69.5256 30.9994 72.5843 32.6341C74.7794 33.8072 75.7825 34.421 76.5227 34.874C76.8208 35.0563 77.0762 35.2126 77.3497 35.3689C78.3079 35.9164 79.3145 36.3502 82.5944 37.6108C85.1128 38.5788 87.1677 38.8757 89.008 38.6987C90.8444 38.5221 92.383 37.8809 93.8602 37.1111C94.452 36.8027 95.0343 36.475 95.6266 36.1417C98.0047 34.8036 100.544 33.3749 104.503 32.7395C105.699 32.5475 107.874 32.5379 110.302 32.9576C112.726 33.3766 115.3 34.2064 117.346 35.6174C127.806 42.8314 126.314 55.7768 120.644 60.2792C116.798 63.3336 113.799 66.7304 112.227 71.5696C110.792 75.9865 112.317 79.468 113.915 82.682C114.037 82.9274 114.16 83.1711 114.281 83.4135C115.782 86.4028 117.19 89.2094 116.917 92.7583C116.765 94.7225 115.498 97.6405 112.541 100.079C108.795 103.17 105.144 103.02 100.86 102.091C99.9501 101.893 99.005 101.657 98.0254 101.413C94.4426 100.517 90.3979 99.5068 85.9092 99.8538C79.7247 100.332 75.6501 104.308 72.0357 107.836C71.7634 108.101 71.4937 108.364 71.2259 108.623C67.3118 112.408 63.8128 115.32 58.3246 114.072C55.1947 113.36 53.3393 111.898 52.1145 109.998C50.8553 108.045 50.2176 105.564 49.687 102.726C49.5528 102.008 49.4263 101.267 49.2973 100.51C48.4315 95.4347 47.4446 89.6497 43.1697 85.3237C41.7673 83.9046 40.2109 82.6309 38.7267 81.4164C38.0516 80.8639 37.3914 80.3237 36.7675 79.7875C34.7247 78.0322 32.9614 76.2415 31.8048 73.9404C30.7197 71.7817 30.8057 69.7071 31.6225 67.6949C32.4551 65.6435 34.0506 63.6597 35.9743 61.8103C37.8902 59.9685 40.0706 58.3168 42.0073 56.9112C42.4123 56.6173 42.8116 56.3308 43.1978 56.0538C44.6084 55.0419 45.845 54.1548 46.553 53.4817C48.3169 51.8048 49.2817 50.3418 49.7627 48.564C50.2166 46.8858 50.2165 44.9827 50.2164 42.5427L50.2164 42.4235C50.2164 39.1386 50.8306 37.3535 51.5128 36.2846C52.0708 35.4104 52.6881 34.9613 53.336 34.4899C53.4963 34.3733 53.6584 34.2554 53.8219 34.1293Z" fill="white"/>
<path d="M53.8219 34.1293C55.3418 32.9577 58.4602 31.7183 62.0639 31.2221C65.6536 30.7279 69.5256 30.9994 72.5843 32.6341C74.7794 33.8072 75.7825 34.421 76.5227 34.874C76.8208 35.0563 77.0762 35.2126 77.3497 35.3689C78.3079 35.9164 79.3145 36.3502 82.5944 37.6108C85.1128 38.5788 87.1677 38.8757 89.008 38.6987C90.8444 38.5221 92.383 37.8809 93.8602 37.1111C94.452 36.8027 95.0343 36.475 95.6266 36.1417C98.0047 34.8036 100.544 33.3749 104.503 32.7395C105.699 32.5475 107.874 32.5379 110.302 32.9576C112.726 33.3766 115.3 34.2064 117.346 35.6174C127.806 42.8314 126.314 55.7768 120.644 60.2792C116.798 63.3336 113.799 66.7304 112.227 71.5696C110.792 75.9865 112.317 79.468 113.915 82.682C114.037 82.9274 114.16 83.1711 114.281 83.4135C115.782 86.4028 117.19 89.2094 116.917 92.7583C116.765 94.7225 115.498 97.6405 112.541 100.079C108.795 103.17 105.144 103.02 100.86 102.091C99.9501 101.893 99.005 101.657 98.0254 101.413C94.4426 100.517 90.3979 99.5068 85.9092 99.8538C79.7247 100.332 75.6501 104.308 72.0357 107.836C71.7634 108.101 71.4937 108.364 71.2259 108.623C67.3118 112.408 63.8128 115.32 58.3246 114.072C55.1947 113.36 53.3393 111.898 52.1145 109.998C50.8553 108.045 50.2176 105.564 49.687 102.726C49.5528 102.008 49.4263 101.267 49.2973 100.51C48.4315 95.4347 47.4446 89.6497 43.1697 85.3237C41.7673 83.9046 40.2109 82.6309 38.7267 81.4164C38.0516 80.8639 37.3914 80.3237 36.7675 79.7875C34.7247 78.0322 32.9614 76.2415 31.8048 73.9404C30.7197 71.7817 30.8057 69.7071 31.6225 67.6949C32.4551 65.6435 34.0506 63.6597 35.9743 61.8103C37.8902 59.9685 40.0706 58.3168 42.0073 56.9112C42.4123 56.6173 42.8116 56.3308 43.1978 56.0538C44.6084 55.0419 45.845 54.1548 46.553 53.4817C48.3169 51.8048 49.2817 50.3418 49.7627 48.564C50.2166 46.8858 50.2165 44.9827 50.2164 42.5427L50.2164 42.4235C50.2164 39.1386 50.8306 37.3535 51.5128 36.2846C52.0708 35.4104 52.6881 34.9613 53.336 34.4899C53.4963 34.3733 53.6584 34.2554 53.8219 34.1293Z" fill="url(#paint0_radial_240_1354)" fill-opacity="0.4"/>
<path d="M53.8219 34.1293C55.3418 32.9577 58.4602 31.7183 62.0639 31.2221C65.6536 30.7279 69.5256 30.9994 72.5843 32.6341C74.7794 33.8072 75.7825 34.421 76.5227 34.874C76.8208 35.0563 77.0762 35.2126 77.3497 35.3689C78.3079 35.9164 79.3145 36.3502 82.5944 37.6108C85.1128 38.5788 87.1677 38.8757 89.008 38.6987C90.8444 38.5221 92.383 37.8809 93.8602 37.1111C94.452 36.8027 95.0343 36.475 95.6266 36.1417C98.0047 34.8036 100.544 33.3749 104.503 32.7395C105.699 32.5475 107.874 32.5379 110.302 32.9576C112.726 33.3766 115.3 34.2064 117.346 35.6174C127.806 42.8314 126.314 55.7768 120.644 60.2792C116.798 63.3336 113.799 66.7304 112.227 71.5696C110.792 75.9865 112.317 79.468 113.915 82.682C114.037 82.9274 114.16 83.1711 114.281 83.4135C115.782 86.4028 117.19 89.2094 116.917 92.7583C116.765 94.7225 115.498 97.6405 112.541 100.079C108.795 103.17 105.144 103.02 100.86 102.091C99.9501 101.893 99.005 101.657 98.0254 101.413C94.4426 100.517 90.3979 99.5068 85.9092 99.8538C79.7247 100.332 75.6501 104.308 72.0357 107.836C71.7634 108.101 71.4937 108.364 71.2259 108.623C67.3118 112.408 63.8128 115.32 58.3246 114.072C55.1947 113.36 53.3393 111.898 52.1145 109.998C50.8553 108.045 50.2176 105.564 49.687 102.726C49.5528 102.008 49.4263 101.267 49.2973 100.51C48.4315 95.4347 47.4446 89.6497 43.1697 85.3237C41.7673 83.9046 40.2109 82.6309 38.7267 81.4164C38.0516 80.8639 37.3914 80.3237 36.7675 79.7875C34.7247 78.0322 32.9614 76.2415 31.8048 73.9404C30.7197 71.7817 30.8057 69.7071 31.6225 67.6949C32.4551 65.6435 34.0506 63.6597 35.9743 61.8103C37.8902 59.9685 40.0706 58.3168 42.0073 56.9112C42.4123 56.6173 42.8116 56.3308 43.1978 56.0538C44.6084 55.0419 45.845 54.1548 46.553 53.4817C48.3169 51.8048 49.2817 50.3418 49.7627 48.564C50.2166 46.8858 50.2165 44.9827 50.2164 42.5427L50.2164 42.4235C50.2164 39.1386 50.8306 37.3535 51.5128 36.2846C52.0708 35.4104 52.6881 34.9613 53.336 34.4899C53.4963 34.3733 53.6584 34.2554 53.8219 34.1293Z" fill="url(#paint1_radial_240_1354)" fill-opacity="0.4"/>
<path d="M53.8219 34.1293C55.3418 32.9577 58.4602 31.7183 62.0639 31.2221C65.6536 30.7279 69.5256 30.9994 72.5843 32.6341C74.7794 33.8072 75.7825 34.421 76.5227 34.874C76.8208 35.0563 77.0762 35.2126 77.3497 35.3689C78.3079 35.9164 79.3145 36.3502 82.5944 37.6108C85.1128 38.5788 87.1677 38.8757 89.008 38.6987C90.8444 38.5221 92.383 37.8809 93.8602 37.1111C94.452 36.8027 95.0343 36.475 95.6266 36.1417C98.0047 34.8036 100.544 33.3749 104.503 32.7395C105.699 32.5475 107.874 32.5379 110.302 32.9576C112.726 33.3766 115.3 34.2064 117.346 35.6174C127.806 42.8314 126.314 55.7768 120.644 60.2792C116.798 63.3336 113.799 66.7304 112.227 71.5696C110.792 75.9865 112.317 79.468 113.915 82.682C114.037 82.9274 114.16 83.1711 114.281 83.4135C115.782 86.4028 117.19 89.2094 116.917 92.7583C116.765 94.7225 115.498 97.6405 112.541 100.079C108.795 103.17 105.144 103.02 100.86 102.091C99.9501 101.893 99.005 101.657 98.0254 101.413C94.4426 100.517 90.3979 99.5068 85.9092 99.8538C79.7247 100.332 75.6501 104.308 72.0357 107.836C71.7634 108.101 71.4937 108.364 71.2259 108.623C67.3118 112.408 63.8128 115.32 58.3246 114.072C55.1947 113.36 53.3393 111.898 52.1145 109.998C50.8553 108.045 50.2176 105.564 49.687 102.726C49.5528 102.008 49.4263 101.267 49.2973 100.51C48.4315 95.4347 47.4446 89.6497 43.1697 85.3237C41.7673 83.9046 40.2109 82.6309 38.7267 81.4164C38.0516 80.8639 37.3914 80.3237 36.7675 79.7875C34.7247 78.0322 32.9614 76.2415 31.8048 73.9404C30.7197 71.7817 30.8057 69.7071 31.6225 67.6949C32.4551 65.6435 34.0506 63.6597 35.9743 61.8103C37.8902 59.9685 40.0706 58.3168 42.0073 56.9112C42.4123 56.6173 42.8116 56.3308 43.1978 56.0538C44.6084 55.0419 45.845 54.1548 46.553 53.4817C48.3169 51.8048 49.2817 50.3418 49.7627 48.564C50.2166 46.8858 50.2165 44.9827 50.2164 42.5427L50.2164 42.4235C50.2164 39.1386 50.8306 37.3535 51.5128 36.2846C52.0708 35.4104 52.6881 34.9613 53.336 34.4899C53.4963 34.3733 53.6584 34.2554 53.8219 34.1293Z" fill="url(#paint2_radial_240_1354)" fill-opacity="0.4"/>
<path d="M53.8219 34.1293C55.3418 32.9577 58.4602 31.7183 62.0639 31.2221C65.6536 30.7279 69.5256 30.9994 72.5843 32.6341C74.7794 33.8072 75.7825 34.421 76.5227 34.874C76.8208 35.0563 77.0762 35.2126 77.3497 35.3689C78.3079 35.9164 79.3145 36.3502 82.5944 37.6108C85.1128 38.5788 87.1677 38.8757 89.008 38.6987C90.8444 38.5221 92.383 37.8809 93.8602 37.1111C94.452 36.8027 95.0343 36.475 95.6266 36.1417C98.0047 34.8036 100.544 33.3749 104.503 32.7395C105.699 32.5475 107.874 32.5379 110.302 32.9576C112.726 33.3766 115.3 34.2064 117.346 35.6174C127.806 42.8314 126.314 55.7768 120.644 60.2792C116.798 63.3336 113.799 66.7304 112.227 71.5696C110.792 75.9865 112.317 79.468 113.915 82.682C114.037 82.9274 114.16 83.1711 114.281 83.4135C115.782 86.4028 117.19 89.2094 116.917 92.7583C116.765 94.7225 115.498 97.6405 112.541 100.079C108.795 103.17 105.144 103.02 100.86 102.091C99.9501 101.893 99.005 101.657 98.0254 101.413C94.4426 100.517 90.3979 99.5068 85.9092 99.8538C79.7247 100.332 75.6501 104.308 72.0357 107.836C71.7634 108.101 71.4937 108.364 71.2259 108.623C67.3118 112.408 63.8128 115.32 58.3246 114.072C55.1947 113.36 53.3393 111.898 52.1145 109.998C50.8553 108.045 50.2176 105.564 49.687 102.726C49.5528 102.008 49.4263 101.267 49.2973 100.51C48.4315 95.4347 47.4446 89.6497 43.1697 85.3237C41.7673 83.9046 40.2109 82.6309 38.7267 81.4164C38.0516 80.8639 37.3914 80.3237 36.7675 79.7875C34.7247 78.0322 32.9614 76.2415 31.8048 73.9404C30.7197 71.7817 30.8057 69.7071 31.6225 67.6949C32.4551 65.6435 34.0506 63.6597 35.9743 61.8103C37.8902 59.9685 40.0706 58.3168 42.0073 56.9112C42.4123 56.6173 42.8116 56.3308 43.1978 56.0538C44.6084 55.0419 45.845 54.1548 46.553 53.4817C48.3169 51.8048 49.2817 50.3418 49.7627 48.564C50.2166 46.8858 50.2165 44.9827 50.2164 42.5427L50.2164 42.4235C50.2164 39.1386 50.8306 37.3535 51.5128 36.2846C52.0708 35.4104 52.6881 34.9613 53.336 34.4899C53.4963 34.3733 53.6584 34.2554 53.8219 34.1293Z" fill="url(#paint3_radial_240_1354)" fill-opacity="0.4"/>
<path d="M53.8219 34.1293C55.3418 32.9577 58.4602 31.7183 62.0639 31.2221C65.6536 30.7279 69.5256 30.9994 72.5843 32.6341C74.7794 33.8072 75.7825 34.421 76.5227 34.874C76.8208 35.0563 77.0762 35.2126 77.3497 35.3689C78.3079 35.9164 79.3145 36.3502 82.5944 37.6108C85.1128 38.5788 87.1677 38.8757 89.008 38.6987C90.8444 38.5221 92.383 37.8809 93.8602 37.1111C94.452 36.8027 95.0343 36.475 95.6266 36.1417C98.0047 34.8036 100.544 33.3749 104.503 32.7395C105.699 32.5475 107.874 32.5379 110.302 32.9576C112.726 33.3766 115.3 34.2064 117.346 35.6174C127.806 42.8314 126.314 55.7768 120.644 60.2792C116.798 63.3336 113.799 66.7304 112.227 71.5696C110.792 75.9865 112.317 79.468 113.915 82.682C114.037 82.9274 114.16 83.1711 114.281 83.4135C115.782 86.4028 117.19 89.2094 116.917 92.7583C116.765 94.7225 115.498 97.6405 112.541 100.079C108.795 103.17 105.144 103.02 100.86 102.091C99.9501 101.893 99.005 101.657 98.0254 101.413C94.4426 100.517 90.3979 99.5068 85.9092 99.8538C79.7247 100.332 75.6501 104.308 72.0357 107.836C71.7634 108.101 71.4937 108.364 71.2259 108.623C67.3118 112.408 63.8128 115.32 58.3246 114.072C55.1947 113.36 53.3393 111.898 52.1145 109.998C50.8553 108.045 50.2176 105.564 49.687 102.726C49.5528 102.008 49.4263 101.267 49.2973 100.51C48.4315 95.4347 47.4446 89.6497 43.1697 85.3237C41.7673 83.9046 40.2109 82.6309 38.7267 81.4164C38.0516 80.8639 37.3914 80.3237 36.7675 79.7875C34.7247 78.0322 32.9614 76.2415 31.8048 73.9404C30.7197 71.7817 30.8057 69.7071 31.6225 67.6949C32.4551 65.6435 34.0506 63.6597 35.9743 61.8103C37.8902 59.9685 40.0706 58.3168 42.0073 56.9112C42.4123 56.6173 42.8116 56.3308 43.1978 56.0538C44.6084 55.0419 45.845 54.1548 46.553 53.4817C48.3169 51.8048 49.2817 50.3418 49.7627 48.564C50.2166 46.8858 50.2165 44.9827 50.2164 42.5427L50.2164 42.4235C50.2164 39.1386 50.8306 37.3535 51.5128 36.2846C52.0708 35.4104 52.6881 34.9613 53.336 34.4899C53.4963 34.3733 53.6584 34.2554 53.8219 34.1293Z" fill="url(#paint4_radial_240_1354)" fill-opacity="0.4"/>
<path d="M53.8219 34.1293C55.3418 32.9577 58.4602 31.7183 62.0639 31.2221C65.6536 30.7279 69.5256 30.9994 72.5843 32.6341C74.7794 33.8072 75.7825 34.421 76.5227 34.874C76.8208 35.0563 77.0762 35.2126 77.3497 35.3689C78.3079 35.9164 79.3145 36.3502 82.5944 37.6108C85.1128 38.5788 87.1677 38.8757 89.008 38.6987C90.8444 38.5221 92.383 37.8809 93.8602 37.1111C94.452 36.8027 95.0343 36.475 95.6266 36.1417C98.0047 34.8036 100.544 33.3749 104.503 32.7395C105.699 32.5475 107.874 32.5379 110.302 32.9576C112.726 33.3766 115.3 34.2064 117.346 35.6174C127.806 42.8314 126.314 55.7768 120.644 60.2792C116.798 63.3336 113.799 66.7304 112.227 71.5696C110.792 75.9865 112.317 79.468 113.915 82.682C114.037 82.9274 114.16 83.1711 114.281 83.4135C115.782 86.4028 117.19 89.2094 116.917 92.7583C116.765 94.7225 115.498 97.6405 112.541 100.079C108.795 103.17 105.144 103.02 100.86 102.091C99.9501 101.893 99.005 101.657 98.0254 101.413C94.4426 100.517 90.3979 99.5068 85.9092 99.8538C79.7247 100.332 75.6501 104.308 72.0357 107.836C71.7634 108.101 71.4937 108.364 71.2259 108.623C67.3118 112.408 63.8128 115.32 58.3246 114.072C55.1947 113.36 53.3393 111.898 52.1145 109.998C50.8553 108.045 50.2176 105.564 49.687 102.726C49.5528 102.008 49.4263 101.267 49.2973 100.51C48.4315 95.4347 47.4446 89.6497 43.1697 85.3237C41.7673 83.9046 40.2109 82.6309 38.7267 81.4164C38.0516 80.8639 37.3914 80.3237 36.7675 79.7875C34.7247 78.0322 32.9614 76.2415 31.8048 73.9404C30.7197 71.7817 30.8057 69.7071 31.6225 67.6949C32.4551 65.6435 34.0506 63.6597 35.9743 61.8103C37.8902 59.9685 40.0706 58.3168 42.0073 56.9112C42.4123 56.6173 42.8116 56.3308 43.1978 56.0538C44.6084 55.0419 45.845 54.1548 46.553 53.4817C48.3169 51.8048 49.2817 50.3418 49.7627 48.564C50.2166 46.8858 50.2165 44.9827 50.2164 42.5427L50.2164 42.4235C50.2164 39.1386 50.8306 37.3535 51.5128 36.2846C52.0708 35.4104 52.6881 34.9613 53.336 34.4899C53.4963 34.3733 53.6584 34.2554 53.8219 34.1293Z" fill="url(#paint5_radial_240_1354)" fill-opacity="0.3"/>
<path d="M53.8219 34.1293C55.3418 32.9577 58.4602 31.7183 62.0639 31.2221C65.6536 30.7279 69.5256 30.9994 72.5843 32.6341C74.7794 33.8072 75.7825 34.421 76.5227 34.874C76.8208 35.0563 77.0762 35.2126 77.3497 35.3689C78.3079 35.9164 79.3145 36.3502 82.5944 37.6108C85.1128 38.5788 87.1677 38.8757 89.008 38.6987C90.8444 38.5221 92.383 37.8809 93.8602 37.1111C94.452 36.8027 95.0343 36.475 95.6266 36.1417C98.0047 34.8036 100.544 33.3749 104.503 32.7395C105.699 32.5475 107.874 32.5379 110.302 32.9576C112.726 33.3766 115.3 34.2064 117.346 35.6174C127.806 42.8314 126.314 55.7768 120.644 60.2792C116.798 63.3336 113.799 66.7304 112.227 71.5696C110.792 75.9865 112.317 79.468 113.915 82.682C114.037 82.9274 114.16 83.1711 114.281 83.4135C115.782 86.4028 117.19 89.2094 116.917 92.7583C116.765 94.7225 115.498 97.6405 112.541 100.079C108.795 103.17 105.144 103.02 100.86 102.091C99.9501 101.893 99.005 101.657 98.0254 101.413C94.4426 100.517 90.3979 99.5068 85.9092 99.8538C79.7247 100.332 75.6501 104.308 72.0357 107.836C71.7634 108.101 71.4937 108.364 71.2259 108.623C67.3118 112.408 63.8128 115.32 58.3246 114.072C55.1947 113.36 53.3393 111.898 52.1145 109.998C50.8553 108.045 50.2176 105.564 49.687 102.726C49.5528 102.008 49.4263 101.267 49.2973 100.51C48.4315 95.4347 47.4446 89.6497 43.1697 85.3237C41.7673 83.9046 40.2109 82.6309 38.7267 81.4164C38.0516 80.8639 37.3914 80.3237 36.7675 79.7875C34.7247 78.0322 32.9614 76.2415 31.8048 73.9404C30.7197 71.7817 30.8057 69.7071 31.6225 67.6949C32.4551 65.6435 34.0506 63.6597 35.9743 61.8103C37.8902 59.9685 40.0706 58.3168 42.0073 56.9112C42.4123 56.6173 42.8116 56.3308 43.1978 56.0538C44.6084 55.0419 45.845 54.1548 46.553 53.4817C48.3169 51.8048 49.2817 50.3418 49.7627 48.564C50.2166 46.8858 50.2165 44.9827 50.2164 42.5427L50.2164 42.4235C50.2164 39.1386 50.8306 37.3535 51.5128 36.2846C52.0708 35.4104 52.6881 34.9613 53.336 34.4899C53.4963 34.3733 53.6584 34.2554 53.8219 34.1293Z" stroke="#200824" stroke-width="2" style="mix-blend-mode:multiply"/>
<path d="M71.6485 66L69.4785 47.59L69.1635 47.485L67.6235 42.9H72.4885L74.3435 59.49H74.4485L82.6735 42.97H87.3635L83.1985 47.8L73.8885 66H71.6485ZM60.0285 66.805C59.3052 66.805 58.7219 66.6067 58.2785 66.21C57.8585 65.8367 57.6485 65.3817 57.6485 64.845C57.6485 64.5883 57.6835 64.39 57.7535 64.25C58.5235 64.2267 59.2119 64.0517 59.8185 63.725C60.4252 63.3983 60.9852 62.8967 61.4985 62.22C62.0352 61.52 62.5369 60.6217 63.0035 59.525C63.4935 58.405 63.9719 57.0633 64.4385 55.5C64.9285 53.9367 65.4302 52.105 65.9435 50.005C66.4802 47.905 67.0752 45.5367 67.7285 42.9L69.8635 45.42C69.0469 49.2933 68.2652 52.525 67.5185 55.115C66.7952 57.705 66.0952 59.7817 65.4185 61.345C64.7419 62.9083 64.1002 64.075 63.4935 64.845C62.8869 65.615 62.2919 66.1283 61.7085 66.385C61.1485 66.665 60.5885 66.805 60.0285 66.805ZM59.7485 52.42C59.0719 52.42 58.4885 52.2683 57.9985 51.965C57.5085 51.6383 57.1352 51.1833 56.8785 50.6C56.6452 49.9933 56.5285 49.2933 56.5285 48.5C56.5285 47.6833 56.6919 46.8783 57.0185 46.085C57.3452 45.2917 57.8352 44.58 58.4885 43.95C59.1419 43.2967 59.9469 42.7833 60.9035 42.41C61.8835 42.0133 63.0385 41.815 64.3685 41.815C65.3719 41.815 66.3052 41.8967 67.1685 42.06C68.0552 42.2233 68.9185 42.3983 69.7585 42.585C70.5985 42.7483 71.4735 42.8533 72.3835 42.9L70.4235 44.86L67.4485 44.23L67.2735 43.915C66.5969 43.7283 65.8385 43.635 64.9985 43.635C63.6219 43.635 62.5369 44.055 61.7435 44.895C60.9502 45.735 60.5419 46.96 60.5185 48.57C60.5185 49.1767 60.5885 49.76 60.7285 50.32C60.8685 50.88 61.0669 51.44 61.3235 52C61.0669 52.1633 60.7985 52.28 60.5185 52.35C60.2619 52.3967 60.0052 52.42 59.7485 52.42ZM84.2485 71.53C83.8052 71.53 83.3969 71.425 83.0235 71.215C82.6735 71.005 82.3702 70.655 82.1135 70.165C81.8802 69.6983 81.6935 69.0567 81.5535 68.24C81.4369 67.4467 81.3902 66.4783 81.4135 65.335C81.4135 64.1683 81.4719 62.6983 81.5885 60.925C81.7052 59.1517 81.9035 57.1217 82.1835 54.835C82.4869 52.525 82.9069 50.0167 83.4435 47.31L83.2685 47.1L82.7085 42.97H87.6085C87.3752 44.2767 87.1185 45.7467 86.8385 47.38C86.5585 49.0133 86.2902 50.705 86.0335 52.455C85.7769 54.205 85.5669 55.9317 85.4035 57.635C85.2402 59.3383 85.1585 60.925 85.1585 62.395C85.1352 64.2617 85.2519 65.8483 85.5085 67.155C85.7652 68.4617 86.1735 69.4183 86.7335 70.025C86.6169 70.305 86.4302 70.5617 86.1735 70.795C85.9169 71.0283 85.6252 71.2033 85.2985 71.32C84.9719 71.46 84.6219 71.53 84.2485 71.53ZM93.1828 95.245L97.2778 73.23C97.4412 72.4367 97.6628 71.795 97.9428 71.305C98.2462 70.7917 98.6312 70.4183 99.0978 70.185C99.5878 69.9283 100.171 69.8 100.848 69.8C101.291 69.8 101.7 69.87 102.073 70.01C102.47 70.15 102.726 70.3833 102.843 70.71C102.54 70.9667 102.271 71.2817 102.038 71.655C101.828 72.0283 101.641 72.495 101.478 73.055C101.338 73.5917 101.186 74.245 101.023 75.015L97.3128 94.755L93.1828 95.245ZM82.2628 96.715C81.8195 96.715 81.3995 96.6333 81.0028 96.47C80.6062 96.3067 80.3495 96.085 80.2328 95.805C80.5128 95.6183 80.7578 95.385 80.9678 95.105C81.1778 94.825 81.3528 94.475 81.4928 94.055C81.6562 93.6117 81.7962 93.075 81.9128 92.445L84.8178 76.94C85.0278 75.8433 85.3428 74.9333 85.7628 74.21C86.1828 73.4867 86.7428 72.9383 87.4428 72.565C88.1428 72.1683 88.9945 71.9467 89.9978 71.9L85.8328 93.215C85.6695 94.0317 85.4362 94.6967 85.1328 95.21C84.8528 95.7467 84.4795 96.1317 84.0128 96.365C83.5462 96.5983 82.9628 96.715 82.2628 96.715ZM79.2528 81.35C78.5528 81.35 77.9462 81.1867 77.4328 80.86C76.9428 80.51 76.5578 80.0317 76.2778 79.425C75.9978 78.8183 75.8578 78.1067 75.8578 77.29C75.8578 76.17 76.1262 75.085 76.6628 74.035C77.2228 72.9617 78.0628 72.0867 79.1828 71.41C80.3028 70.7333 81.7262 70.395 83.4528 70.395C84.1762 70.395 84.8295 70.465 85.4128 70.605C86.0195 70.7217 86.5795 70.885 87.0928 71.095C87.6295 71.2817 88.1312 71.4567 88.5978 71.62C89.0645 71.76 89.5195 71.8533 89.9628 71.9L86.8478 72.985L86.7778 72.88C86.6378 72.7867 86.3928 72.6583 86.0428 72.495C85.6928 72.3317 85.1095 72.25 84.2928 72.25C82.8928 72.25 81.7962 72.6817 81.0028 73.545C80.2328 74.4083 79.8478 75.61 79.8478 77.15C79.8478 77.8033 79.9295 78.445 80.0928 79.075C80.2562 79.705 80.5012 80.3233 80.8278 80.93C80.5945 81.07 80.3378 81.175 80.0578 81.245C79.8012 81.315 79.5328 81.35 79.2528 81.35ZM86.3228 84.85L86.7428 82.4H96.9628L96.5078 84.85H86.3228Z" fill="#200824" style="mix-blend-mode:multiply"/>
</g>
<g filter="url(#filter1_i_240_1354)">
<circle cx="62" cy="103" r="5" fill="white" fill-opacity="0.05"/>
</g>
<g filter="url(#filter2_dii_240_1354)">
<rect x="47.569" y="147.577" width="22.7513" height="22.7663" rx="11.3756" fill="#E4E2E2"/>
</g>
<g filter="url(#filter3_iii_240_1354)">
<path d="M58.9442 151.766C59.4233 151.766 59.9065 152.046 60.1942 152.614L60.2063 152.64L61.3454 155.03L61.3458 155.031C61.5281 155.399 61.8633 155.66 62.2545 155.718L62.2548 155.719L64.8026 156.079C64.8027 156.079 64.8028 156.079 64.8028 156.079C65.4416 156.173 65.8767 156.562 66.031 157.048C66.1853 157.533 66.0617 158.124 65.564 158.625L65.5636 158.626L63.7785 160.469C63.7785 160.469 63.7784 160.469 63.7783 160.469C63.6278 160.621 63.516 160.807 63.4523 161.012C63.3886 161.216 63.3748 161.433 63.4121 161.643C63.4121 161.644 63.4122 161.644 63.4122 161.644L63.8133 164.263L63.8134 164.263C63.9248 164.927 63.7008 165.489 63.314 165.81C62.9283 166.13 62.3752 166.214 61.8139 165.913L61.8138 165.913L59.4683 164.665L59.4682 164.665C59.3012 164.576 59.1151 164.53 58.9262 164.53C58.7372 164.53 58.5511 164.576 58.3842 164.665L58.3841 164.665L56.0386 165.913C55.4768 166.212 54.9059 166.133 54.5167 165.813C54.1274 165.493 53.913 164.926 54.0786 164.235L54.0788 164.235L54.0794 164.231L54.4753 161.669C54.4753 161.669 54.4754 161.669 54.4754 161.668C54.5127 161.458 54.499 161.241 54.4353 161.036C54.3716 160.832 54.2598 160.646 54.1093 160.494C54.1092 160.494 54.1091 160.494 54.109 160.493L52.289 158.586L52.289 158.586L52.288 158.585C51.7863 158.089 51.6631 157.509 51.8181 157.033C51.9733 156.556 52.4102 156.173 53.0497 156.079L55.5042 155.718L55.5043 155.718C55.8894 155.661 56.3353 155.41 56.5157 155.03C56.5157 155.03 56.5157 155.03 56.5158 155.03L57.6778 152.64C57.6779 152.64 57.6779 152.64 57.6779 152.64C57.9662 152.054 58.458 151.766 58.9442 151.766Z" fill="url(#paint6_radial_240_1354)" stroke="#ABABAB" stroke-width="0.1"/>
<path d="M58.9442 151.766C59.4233 151.766 59.9065 152.046 60.1942 152.614L60.2063 152.64L61.3454 155.03L61.3458 155.031C61.5281 155.399 61.8633 155.66 62.2545 155.718L62.2548 155.719L64.8026 156.079C64.8027 156.079 64.8028 156.079 64.8028 156.079C65.4416 156.173 65.8767 156.562 66.031 157.048C66.1853 157.533 66.0617 158.124 65.564 158.625L65.5636 158.626L63.7785 160.469C63.7785 160.469 63.7784 160.469 63.7783 160.469C63.6278 160.621 63.516 160.807 63.4523 161.012C63.3886 161.216 63.3748 161.433 63.4121 161.643C63.4121 161.644 63.4122 161.644 63.4122 161.644L63.8133 164.263L63.8134 164.263C63.9248 164.927 63.7008 165.489 63.314 165.81C62.9283 166.13 62.3752 166.214 61.8139 165.913L61.8138 165.913L59.4683 164.665L59.4682 164.665C59.3012 164.576 59.1151 164.53 58.9262 164.53C58.7372 164.53 58.5511 164.576 58.3842 164.665L58.3841 164.665L56.0386 165.913C55.4768 166.212 54.9059 166.133 54.5167 165.813C54.1274 165.493 53.913 164.926 54.0786 164.235L54.0788 164.235L54.0794 164.231L54.4753 161.669C54.4753 161.669 54.4754 161.669 54.4754 161.668C54.5127 161.458 54.499 161.241 54.4353 161.036C54.3716 160.832 54.2598 160.646 54.1093 160.494C54.1092 160.494 54.1091 160.494 54.109 160.493L52.289 158.586L52.289 158.586L52.288 158.585C51.7863 158.089 51.6631 157.509 51.8181 157.033C51.9733 156.556 52.4102 156.173 53.0497 156.079L55.5042 155.718L55.5043 155.718C55.8894 155.661 56.3353 155.41 56.5157 155.03C56.5157 155.03 56.5157 155.03 56.5158 155.03L57.6778 152.64C57.6779 152.64 57.6779 152.64 57.6779 152.64C57.9662 152.054 58.458 151.766 58.9442 151.766Z" fill="url(#paint7_radial_240_1354)" stroke="#ABABAB" stroke-width="0.1"/>
</g>
<path d="M58.9441 151.766C59.4232 151.766 59.9065 152.045 60.1941 152.614L60.2062 152.64L61.3453 155.03L61.3457 155.031C61.528 155.399 61.8633 155.66 62.2544 155.718L62.2548 155.718L64.8026 156.078C64.8026 156.078 64.8027 156.078 64.8028 156.078C65.4415 156.173 65.8766 156.562 66.031 157.048C66.1852 157.533 66.0616 158.123 65.564 158.625L65.5636 158.626L63.7785 160.468C63.7784 160.469 63.7783 160.469 63.7783 160.469C63.6277 160.621 63.5159 160.807 63.4522 161.012C63.3885 161.216 63.3747 161.433 63.412 161.643C63.4121 161.644 63.4121 161.644 63.4121 161.644L63.8132 164.262L63.8133 164.263C63.9247 164.927 63.7007 165.489 63.3139 165.81C62.9282 166.13 62.3751 166.214 61.8138 165.913L61.8137 165.913L59.4682 164.665L59.4681 164.664C59.3011 164.576 59.1151 164.53 58.9261 164.53C58.7372 164.53 58.5511 164.576 58.3841 164.664L58.384 164.665L56.0385 165.913C55.4767 166.211 54.9059 166.133 54.5166 165.812C54.1273 165.492 53.9129 164.925 54.0785 164.234L54.0787 164.234L54.0793 164.23L54.4752 161.669C54.4753 161.669 54.4753 161.668 54.4753 161.668C54.5126 161.457 54.4989 161.241 54.4352 161.036C54.3715 160.832 54.2597 160.646 54.1092 160.494C54.1091 160.494 54.109 160.493 54.1089 160.493L52.2889 158.586L52.2889 158.586L52.2879 158.585C51.7863 158.089 51.663 157.509 51.8181 157.033C51.9732 156.556 52.4102 156.173 53.0496 156.078L55.5041 155.718L55.5042 155.718C55.8894 155.661 56.3353 155.41 56.5156 155.03C56.5156 155.03 56.5157 155.03 56.5157 155.03L57.6778 152.64C57.6778 152.64 57.6778 152.64 57.6778 152.64C57.9662 152.054 58.4579 151.766 58.9441 151.766Z" fill="url(#paint8_radial_240_1354)" stroke="#ABABAB" stroke-width="0.1"/>
<path d="M58.9441 151.766C59.4232 151.766 59.9065 152.045 60.1941 152.614L60.2062 152.64L61.3453 155.03L61.3457 155.031C61.528 155.399 61.8633 155.66 62.2544 155.718L62.2548 155.718L64.8026 156.078C64.8026 156.078 64.8027 156.078 64.8028 156.078C65.4415 156.173 65.8766 156.562 66.031 157.048C66.1852 157.533 66.0616 158.123 65.564 158.625L65.5636 158.626L63.7785 160.468C63.7784 160.469 63.7783 160.469 63.7783 160.469C63.6277 160.621 63.5159 160.807 63.4522 161.012C63.3885 161.216 63.3747 161.433 63.412 161.643C63.4121 161.644 63.4121 161.644 63.4121 161.644L63.8132 164.262L63.8133 164.263C63.9247 164.927 63.7007 165.489 63.3139 165.81C62.9282 166.13 62.3751 166.214 61.8138 165.913L61.8137 165.913L59.4682 164.665L59.4681 164.664C59.3011 164.576 59.1151 164.53 58.9261 164.53C58.7372 164.53 58.5511 164.576 58.3841 164.664L58.384 164.665L56.0385 165.913C55.4767 166.211 54.9059 166.133 54.5166 165.812C54.1273 165.492 53.9129 164.925 54.0785 164.234L54.0787 164.234L54.0793 164.23L54.4752 161.669C54.4753 161.669 54.4753 161.668 54.4753 161.668C54.5126 161.457 54.4989 161.241 54.4352 161.036C54.3715 160.832 54.2597 160.646 54.1092 160.494C54.1091 160.494 54.109 160.493 54.1089 160.493L52.2889 158.586L52.2889 158.586L52.2879 158.585C51.7863 158.089 51.663 157.509 51.8181 157.033C51.9732 156.556 52.4102 156.173 53.0496 156.078L55.5041 155.718L55.5042 155.718C55.8894 155.661 56.3353 155.41 56.5156 155.03C56.5156 155.03 56.5157 155.03 56.5157 155.03L57.6778 152.64C57.6778 152.64 57.6778 152.64 57.6778 152.64C57.9662 152.054 58.4579 151.766 58.9441 151.766Z" fill="url(#paint9_radial_240_1354)" stroke="#ABABAB" stroke-width="0.1"/>
<path d="M58.9441 151.766C59.4232 151.766 59.9065 152.045 60.1941 152.614L60.2062 152.64L61.3453 155.03L61.3457 155.031C61.528 155.399 61.8633 155.66 62.2544 155.718L62.2548 155.718L64.8026 156.078C64.8026 156.078 64.8027 156.078 64.8028 156.078C65.4415 156.173 65.8766 156.562 66.031 157.048C66.1852 157.533 66.0616 158.123 65.564 158.625L65.5636 158.626L63.7785 160.468C63.7784 160.469 63.7783 160.469 63.7783 160.469C63.6277 160.621 63.5159 160.807 63.4522 161.012C63.3885 161.216 63.3747 161.433 63.412 161.643C63.4121 161.644 63.4121 161.644 63.4121 161.644L63.8132 164.262L63.8133 164.263C63.9247 164.927 63.7007 165.489 63.3139 165.81C62.9282 166.13 62.3751 166.214 61.8138 165.913L61.8137 165.913L59.4682 164.665L59.4681 164.664C59.3011 164.576 59.1151 164.53 58.9261 164.53C58.7372 164.53 58.5511 164.576 58.3841 164.664L58.384 164.665L56.0385 165.913C55.4767 166.211 54.9059 166.133 54.5166 165.812C54.1273 165.492 53.9129 164.925 54.0785 164.234L54.0787 164.234L54.0793 164.23L54.4752 161.669C54.4753 161.669 54.4753 161.668 54.4753 161.668C54.5126 161.457 54.4989 161.241 54.4352 161.036C54.3715 160.832 54.2597 160.646 54.1092 160.494C54.1091 160.494 54.109 160.493 54.1089 160.493L52.2889 158.586L52.2889 158.586L52.2879 158.585C51.7863 158.089 51.663 157.509 51.8181 157.033C51.9732 156.556 52.4102 156.173 53.0496 156.078L55.5041 155.718L55.5042 155.718C55.8894 155.661 56.3353 155.41 56.5156 155.03C56.5156 155.03 56.5157 155.03 56.5157 155.03L57.6778 152.64C57.6778 152.64 57.6778 152.64 57.6778 152.64C57.9662 152.054 58.4579 151.766 58.9441 151.766Z" fill="url(#paint10_radial_240_1354)" stroke="#ABABAB" stroke-width="0.1"/>
<path d="M58.9441 151.766C59.4232 151.766 59.9065 152.045 60.1941 152.614L60.2062 152.64L61.3453 155.03L61.3457 155.031C61.528 155.399 61.8633 155.66 62.2544 155.718L62.2548 155.718L64.8026 156.078C64.8026 156.078 64.8027 156.078 64.8028 156.078C65.4415 156.173 65.8766 156.562 66.031 157.048C66.1852 157.533 66.0616 158.123 65.564 158.625L65.5636 158.626L63.7785 160.468C63.7784 160.469 63.7783 160.469 63.7783 160.469C63.6277 160.621 63.5159 160.807 63.4522 161.012C63.3885 161.216 63.3747 161.433 63.412 161.643C63.4121 161.644 63.4121 161.644 63.4121 161.644L63.8132 164.262L63.8133 164.263C63.9247 164.927 63.7007 165.489 63.3139 165.81C62.9282 166.13 62.3751 166.214 61.8138 165.913L61.8137 165.913L59.4682 164.665L59.4681 164.664C59.3011 164.576 59.1151 164.53 58.9261 164.53C58.7372 164.53 58.5511 164.576 58.3841 164.664L58.384 164.665L56.0385 165.913C55.4767 166.211 54.9059 166.133 54.5166 165.812C54.1273 165.492 53.9129 164.925 54.0785 164.234L54.0787 164.234L54.0793 164.23L54.4752 161.669C54.4753 161.669 54.4753 161.668 54.4753 161.668C54.5126 161.457 54.4989 161.241 54.4352 161.036C54.3715 160.832 54.2597 160.646 54.1092 160.494C54.1091 160.494 54.109 160.493 54.1089 160.493L52.2889 158.586L52.2889 158.586L52.2879 158.585C51.7863 158.089 51.663 157.509 51.8181 157.033C51.9732 156.556 52.4102 156.173 53.0496 156.078L55.5041 155.718L55.5042 155.718C55.8894 155.661 56.3353 155.41 56.5156 155.03C56.5156 155.03 56.5157 155.03 56.5157 155.03L57.6778 152.64C57.6778 152.64 57.6778 152.64 57.6778 152.64C57.9662 152.054 58.4579 151.766 58.9441 151.766Z" fill="url(#paint11_radial_240_1354)" stroke="#ABABAB" stroke-width="0.1"/>
<g filter="url(#filter4_i_240_1354)">
<ellipse cx="59.2028" cy="149.388" rx="0.775612" ry="0.776124" fill="white"/>
</g>
<g filter="url(#filter5_f_240_1354)">
<path d="M68.7856 158.96C68.7856 164.4 64.3791 168.809 58.9441 168.809C53.5091 168.809 49.1026 164.4 49.1026 158.96C49.1026 153.521 53.5091 149.112 58.9441 149.112C64.3791 149.112 68.7856 153.521 68.7856 158.96Z" stroke="white" stroke-opacity="0.7"/>
</g>
<g filter="url(#filter6_f_240_1354)">
<path d="M54.9537 138.5C54.9537 141.538 57.1908 144 59.9504 144C62.71 144 64.9471 141.538 64.9471 138.5C64.9471 135.462 62.71 133 59.9504 133" stroke="white" stroke-opacity="0.7"/>
</g>
<path fill-rule="evenodd" clip-rule="evenodd" d="M59.1016 149.921C59.2866 149.931 59.4366 149.846 59.5403 149.748C59.6386 149.655 59.7112 149.537 59.7665 149.424C59.8776 149.197 59.9618 148.901 60.0274 148.599C60.0783 148.359 60.317 147.175 60.4008 144.506C60.1444 144.514 59.7342 144.526 59.7342 144.526C59.7342 144.526 59.6535 146.938 59.3481 148.478C59.2861 148.764 59.2165 148.992 59.1445 149.139C59.1417 149.145 59.1388 149.15 59.1358 149.156C59.121 149.13 59.1036 149.097 59.0849 149.052C59.0056 148.864 58.9394 148.582 58.8899 148.226C58.7913 147.521 58.7685 146.617 58.7804 145.833C58.7914 145.074 58.8697 144.102 59.0073 143.32C59.0769 142.926 59.158 142.598 59.2462 142.371C59.2648 142.323 59.2826 142.283 59.299 142.25C59.3378 142.337 59.3428 142.32 59.3792 142.497C59.3466 142.261 59.4183 142.688 59.3792 142.497C59.633 142.519 59.863 142.375 60.0939 142.476C60.143 142.714 60.0579 142.213 60.0939 142.476C60.0459 142.243 59.9807 142.006 59.8749 141.824C59.765 141.637 59.5622 141.436 59.241 141.475C59.0375 141.499 58.8971 141.632 58.8126 141.742C58.7244 141.856 58.6555 141.998 58.5994 142.142C58.4857 142.434 58.3949 142.816 58.3227 143.227C58.1775 144.053 58.0962 145.062 58.0846 145.852C58.0728 146.649 58.0954 147.593 58.201 148.35C58.2534 148.726 58.3292 149.077 58.4427 149.345C58.5435 149.583 58.7359 149.901 59.1016 149.921Z" fill="url(#paint12_linear_240_1354)"/>
<path fill-rule="evenodd" clip-rule="evenodd" d="M59.1016 149.921C59.2866 149.931 59.4366 149.846 59.5403 149.748C59.6386 149.655 59.7112 149.537 59.7665 149.424C59.8776 149.197 59.9618 148.901 60.0274 148.599C60.0783 148.359 60.3208 146.867 60.4521 144.505C60.1444 144.514 60.0784 144.49 59.8262 144.523C59.804 144.657 59.5627 147.915 59.3481 148.478C59.2861 148.764 59.2165 148.992 59.1445 149.139C59.1417 149.145 59.1388 149.15 59.1358 149.156C59.121 149.13 59.1036 149.097 59.0849 149.052C59.0056 148.864 58.9394 148.582 58.8899 148.226C58.7913 147.521 58.7685 146.617 58.7804 145.833C58.7914 145.074 58.8697 144.102 59.0073 143.32C59.0769 142.926 59.158 142.598 59.2462 142.371C59.2648 142.323 59.2826 142.283 59.299 142.25C59.3378 142.337 59.3428 142.32 59.3792 142.497C59.3466 142.261 59.4183 142.688 59.3792 142.497C59.633 142.519 59.863 142.375 60.0939 142.476C60.143 142.714 60.0579 142.213 60.0939 142.476C60.0459 142.243 59.9807 142.006 59.8749 141.824C59.765 141.637 59.5622 141.436 59.241 141.475C59.0375 141.499 58.8971 141.632 58.8126 141.742C58.7244 141.856 58.6555 141.998 58.5994 142.142C58.4857 142.434 58.3949 142.816 58.3227 143.227C58.1775 144.053 58.0962 145.062 58.0846 145.852C58.0728 146.649 58.0954 147.593 58.201 148.35C58.2534 148.726 58.3292 149.077 58.4427 149.345C58.5435 149.583 58.7359 149.901 59.1016 149.921Z" fill="url(#paint13_radial_240_1354)"/>
<path fill-rule="evenodd" clip-rule="evenodd" d="M59.0942 149.91C59.2792 149.92 59.4292 149.835 59.5329 149.737C59.6312 149.644 59.7038 149.525 59.7591 149.413C59.8702 149.186 59.9544 148.89 60.02 148.588C60.0708 148.348 60.309 147.215 60.4095 144.495C60.137 144.503 60.0302 144.48 59.7781 144.513C59.7512 146.719 59.4321 148.226 59.3777 148.484C59.3078 148.863 59.2182 148.95 59.1421 149.144C59.1502 149.161 59.1451 149.144 59.1284 149.145C59.1136 149.119 59.0962 149.085 59.0774 149.04C58.9982 148.853 58.932 148.57 58.8825 148.215C58.7839 147.51 58.761 146.606 58.7729 145.822C58.7839 145.063 58.8623 144.091 58.9999 143.309C59.0695 142.915 59.1506 142.586 59.2388 142.36C59.2574 142.312 59.2752 142.272 59.2916 142.239C59.3304 142.326 59.3353 142.309 59.3718 142.485C59.3392 142.25 59.4109 142.676 59.3718 142.485C59.6255 142.508 59.8556 142.364 60.0864 142.465C60.1355 142.703 60.0505 142.202 60.0864 142.465C60.0385 142.232 59.9733 141.994 59.8675 141.813C59.7575 141.626 59.5547 141.425 59.2336 141.464C59.0301 141.488 58.8897 141.621 58.8052 141.731C58.717 141.845 58.6481 141.987 58.592 142.131C58.4782 142.423 58.3875 142.805 58.3153 143.216C58.17 144.042 58.0888 145.051 58.0772 145.841C58.0654 146.637 58.0879 147.582 58.1936 148.339C58.2459 148.714 58.3218 149.066 58.4353 149.334C58.536 149.572 58.7285 149.89 59.0942 149.91Z" fill="url(#paint14_radial_240_1354)"/>
<path fill-rule="evenodd" clip-rule="evenodd" d="M59.1016 149.921C59.2866 149.931 59.4366 149.846 59.5403 149.748C59.6386 149.655 59.7112 149.537 59.7665 149.424C59.8776 149.197 59.9618 148.901 60.0274 148.599C60.0783 148.359 60.3139 147.432 60.4008 144.506C60.0772 144.516 60.0784 144.49 59.8262 144.523C59.6467 147.502 59.3747 148.354 59.3481 148.478C59.2861 148.764 59.2165 148.992 59.1445 149.139C59.1417 149.145 59.1388 149.15 59.1358 149.156C59.121 149.13 59.1036 149.097 59.0849 149.052C59.0056 148.864 58.9394 148.582 58.8899 148.226C58.7913 147.521 58.7685 146.617 58.7804 145.833C58.7914 145.074 58.8697 144.102 59.0073 143.32C59.0769 142.926 59.158 142.598 59.2462 142.371C59.2648 142.323 59.2826 142.283 59.299 142.25C59.3378 142.337 59.3428 142.32 59.3792 142.497C59.3466 142.261 59.4183 142.688 59.3792 142.497C59.633 142.519 59.863 142.375 60.0939 142.476C60.0459 142.243 59.9807 142.006 59.8749 141.824C59.765 141.637 59.5622 141.436 59.241 141.475C59.0375 141.499 58.8971 141.632 58.8126 141.742C58.7244 141.856 58.6555 141.998 58.5994 142.142C58.4857 142.434 58.3949 142.816 58.3227 143.227C58.1775 144.053 58.0962 145.062 58.0846 145.852C58.0728 146.649 58.0954 147.593 58.201 148.35C58.2534 148.726 58.3292 149.077 58.4427 149.345C58.5435 149.583 58.7359 149.901 59.1016 149.921Z" fill="url(#paint15_radial_240_1354)"/>
<path fill-rule="evenodd" clip-rule="evenodd" d="M59.1016 149.921C59.2866 149.931 59.4366 149.846 59.5403 149.748C59.6386 149.655 59.7112 149.537 59.7665 149.424C59.8776 149.197 59.9618 148.901 60.0274 148.599C60.0783 148.359 60.3796 146.25 60.4008 144.506C60.1444 144.514 60.0377 144.491 59.7855 144.524C59.7542 147.089 59.3747 148.354 59.3481 148.478C59.2861 148.764 59.2165 148.992 59.1445 149.139C59.1417 149.145 59.1388 149.15 59.1358 149.156C59.121 149.13 59.1036 149.097 59.0849 149.052C59.0056 148.864 58.9394 148.582 58.8899 148.226C58.7913 147.521 58.7685 146.617 58.7804 145.833C58.7914 145.074 58.8697 144.102 59.0073 143.32C59.0769 142.926 59.158 142.598 59.2462 142.371C59.2648 142.323 59.2826 142.283 59.299 142.25C59.3378 142.337 59.376 142.467 59.4124 142.643C59.4515 142.834 59.3466 142.261 59.3792 142.497C59.633 142.519 59.863 142.375 60.0939 142.476C60.143 142.714 60.0579 142.213 60.0939 142.476C60.0459 142.243 59.9807 142.006 59.8749 141.824C59.765 141.637 59.5622 141.436 59.241 141.475C59.0375 141.499 58.8971 141.632 58.8126 141.742C58.7244 141.856 58.6555 141.998 58.5994 142.142C58.4857 142.434 58.3949 142.816 58.3227 143.227C58.1775 144.053 58.0962 145.062 58.0846 145.852C58.0728 146.649 58.0954 147.593 58.201 148.35C58.2534 148.726 58.3292 149.077 58.4427 149.345C58.5435 149.583 58.7359 149.901 59.1016 149.921Z" fill="url(#paint16_radial_240_1354)"/>
<path fill-rule="evenodd" clip-rule="evenodd" d="M59.1016 149.921C59.2866 149.931 59.4366 149.846 59.5403 149.748C59.6386 149.655 59.7112 149.537 59.7665 149.424C59.8776 149.197 59.9618 148.901 60.0274 148.599C60.0783 148.359 60.4365 145.783 60.4008 144.506C60.0772 144.516 60.0377 144.491 59.7855 144.524C59.7486 147.551 59.3747 148.354 59.3481 148.478C59.2861 148.764 59.2165 148.992 59.1445 149.139C59.1417 149.145 59.1388 149.15 59.1358 149.156C59.121 149.13 59.1036 149.097 59.0849 149.052C59.0056 148.864 58.9394 148.582 58.8899 148.226C58.7913 147.521 58.7685 146.617 58.7804 145.833C58.7914 145.074 58.8697 144.102 59.0073 143.32C59.0769 142.926 59.158 142.598 59.2462 142.371C59.2648 142.323 59.2826 142.283 59.299 142.25C59.3378 142.337 59.324 142.261 59.3605 142.437C59.3279 142.201 59.3996 142.628 59.3605 142.437C59.6143 142.459 59.863 142.375 60.0939 142.476C60.143 142.714 60.0579 142.213 60.0939 142.476C60.0459 142.243 59.9807 142.006 59.8749 141.824C59.765 141.637 59.5622 141.436 59.241 141.475C59.0375 141.499 58.8971 141.632 58.8126 141.742C58.7244 141.856 58.6555 141.998 58.5994 142.142C58.4857 142.434 58.3949 142.816 58.3227 143.227C58.1775 144.053 58.0962 145.062 58.0846 145.852C58.0728 146.649 58.0954 147.593 58.201 148.35C58.2534 148.726 58.3292 149.077 58.4427 149.345C58.5435 149.583 58.7359 149.901 59.1016 149.921Z" fill="url(#paint17_radial_240_1354)"/>
<path fill-rule="evenodd" clip-rule="evenodd" d="M59.1016 149.921C59.2866 149.931 59.4366 149.846 59.5403 149.748C59.6386 149.655 59.7112 149.537 59.7665 149.424C59.8776 149.197 59.9618 148.901 60.0274 148.599C60.1591 147.949 60.2589 147.741 60.4008 144.506C60.1444 144.514 60.0377 144.491 59.7855 144.524C59.5954 147.504 59.3747 148.354 59.3481 148.478C59.2861 148.764 59.2165 148.992 59.1445 149.139C59.1417 149.145 59.1388 149.15 59.1358 149.156C59.121 149.13 59.1036 149.097 59.0849 149.052C59.0056 148.864 58.9394 148.582 58.8899 148.226C58.7913 147.521 58.7685 146.617 58.7804 145.833C58.7914 145.074 58.8697 144.102 59.0073 143.32C59.0769 142.926 59.158 142.598 59.2462 142.371C59.2648 142.323 59.2826 142.283 59.299 142.25C59.3378 142.337 59.3428 142.32 59.3792 142.497C59.3466 142.261 59.4183 142.688 59.3792 142.497C59.633 142.519 59.863 142.375 60.0939 142.476C60.143 142.714 60.0579 142.213 60.0939 142.476C60.0459 142.243 59.9807 142.006 59.8749 141.824C59.765 141.637 59.5622 141.436 59.241 141.475C59.0375 141.499 58.8971 141.632 58.8126 141.742C58.7244 141.856 58.6555 141.998 58.5994 142.142C58.4857 142.434 58.3949 142.816 58.3227 143.227C58.1775 144.053 58.0962 145.062 58.0846 145.852C58.0728 146.649 58.0954 147.593 58.201 148.35C58.2534 148.726 58.3292 149.077 58.4427 149.345C58.5435 149.583 58.7359 149.901 59.1016 149.921Z" fill="url(#paint18_radial_240_1354)"/>
<path d="M60.0939 142.476C59.863 142.375 59.633 142.519 59.3792 142.497L59.3792 142.653L60.0939 142.653L60.0939 142.476Z" fill="url(#paint19_radial_240_1354)"/>
<path fill-rule="evenodd" clip-rule="evenodd" d="M59.1016 149.921C59.2866 149.931 59.4366 149.846 59.5403 149.748C59.6386 149.655 59.7112 149.537 59.7665 149.424C59.8776 149.197 59.9618 148.901 60.0274 148.599C60.1591 147.949 60.2589 147.741 60.4008 144.506C60.1444 144.514 60.0377 144.491 59.7855 144.524C59.5954 147.504 59.3747 148.354 59.3481 148.478C59.2861 148.764 59.2165 148.992 59.1445 149.139C59.1417 149.145 59.1388 149.15 59.1358 149.156C59.121 149.13 59.1036 149.097 59.0849 149.052C59.0056 148.864 58.9394 148.582 58.8899 148.226C58.7913 147.521 58.7685 146.617 58.7804 145.833C58.7914 145.074 58.8697 144.102 59.0073 143.32C59.0769 142.926 59.158 142.598 59.2462 142.371C59.2648 142.323 59.2826 142.283 59.299 142.25C59.3378 142.337 59.3067 142.192 59.3431 142.368C59.3106 142.132 59.3822 142.559 59.3431 142.368C59.5969 142.391 59.8458 142.295 60.0766 142.396C60.1257 142.634 60.0407 142.133 60.0766 142.396C60.0287 142.163 59.9807 142.006 59.8749 141.824C59.765 141.637 59.5622 141.436 59.241 141.475C59.0375 141.499 58.8971 141.632 58.8126 141.742C58.7244 141.856 58.6555 141.998 58.5994 142.142C58.4857 142.434 58.3949 142.816 58.3227 143.227C58.1775 144.053 58.0962 145.062 58.0846 145.852C58.0728 146.649 58.0954 147.593 58.201 148.35C58.2534 148.726 58.3292 149.077 58.4427 149.345C58.5435 149.583 58.7359 149.901 59.1016 149.921Z" fill="url(#paint20_radial_240_1354)"/>
<g filter="url(#filter7_f_240_1354)">
<path d="M59.4521 149.544C59.4616 149.528 59.4647 149.51 59.4608 149.493C59.4569 149.476 59.4463 149.461 59.4313 149.452C59.4163 149.443 59.3981 149.441 59.3808 149.445C59.3635 149.45 59.3484 149.461 59.3389 149.477L59.4521 149.544ZM58.2644 145.616C58.2322 146.221 58.2496 147.835 58.4739 148.944L58.6048 148.912C58.3834 147.818 58.3662 146.217 58.398 145.618L58.2644 145.616ZM58.4739 148.944C58.5675 149.407 58.7468 149.647 58.9474 149.725C59.1518 149.804 59.3531 149.704 59.4521 149.544L59.3389 149.477C59.2701 149.589 59.1355 149.652 58.9999 149.6C58.8604 149.546 58.6955 149.36 58.6048 148.912L58.4739 148.944Z" fill="url(#paint21_linear_240_1354)"/>
</g>
<path d="M59.2031 148.095H59.4616L59.9787 148.353L60.2372 148.612L60.4958 149.129" stroke="url(#paint22_linear_240_1354)"/>
<path d="M59.5777 149.016L59.7596 148.93L60.2609 149.063L60.7547 149.236L61.2373 149.469" stroke="url(#paint23_linear_240_1354)" stroke-width="2"/>
<g filter="url(#filter8_i_240_1354)">
<path d="M64.5231 138.413C64.3307 135.634 61.9234 133.537 59.1463 133.73" stroke="#F2D233" stroke-width="2.5"/>
</g>
<g filter="url(#filter9_i_240_1354)">
<path d="M62.7409 107.95C62.6423 106.418 62.7081 107.439 61.9491 105" stroke="#E7B023" stroke-width="2.9"/>
</g>
<g filter="url(#filter10_ddddd_240_1354)">
<g filter="url(#filter11_i_240_1354)">
<path d="M57.465 134.327C53.6325 136.516 54.2604 140.505 56.2025 142.413C58.1447 144.321 61.2638 144.292 63.1693 142.348C65.0748 140.405 65.0451 137.283 63.103 135.375" stroke="#F2D233" stroke-width="2.5"/>
</g>
<path fill-rule="evenodd" clip-rule="evenodd" d="M59.9107 139.292C60.7465 139.363 61.4189 139 61.8819 138.57C62.3208 138.163 62.6422 137.639 62.8856 137.137C63.3752 136.128 63.7395 134.801 64.0196 133.445C64.2364 132.371 65.2456 126.516 65.4818 114.474C64.4706 114.94 62.4774 115.489 62.4774 115.489C62.4774 115.489 62.2434 125.895 60.9467 132.81C60.6818 134.09 60.3799 135.111 60.0626 135.765C60.0504 135.792 60.0374 135.817 60.0243 135.841C59.9562 135.724 59.8757 135.569 59.7888 135.363C59.4209 134.506 59.1072 133.221 58.8647 131.609C58.382 128.411 58.2307 124.326 58.2427 120.788C58.252 117.358 58.554 112.981 59.1334 109.466C59.4266 107.696 59.7751 106.224 60.1614 105.213C60.2427 104.997 60.3211 104.819 60.3933 104.672C60.5732 105.071 60.6864 105.732 61.024 107.996C60.8646 106.927 61.2108 108.864 61.024 107.996C62.1709 108.131 64.0253 107.481 64.0253 107.481C64.2597 108.565 63.8305 104.654 64.0253 107.481C63.9022 105.694 63.4578 103.661 62.9703 102.827C62.4641 101.966 61.5379 101.032 60.0901 101.163C59.1727 101.246 58.5461 101.828 58.1705 102.313C57.7785 102.817 57.475 103.447 57.2294 104.092C56.7313 105.394 56.3421 107.109 56.038 108.954C55.4262 112.664 55.1133 117.211 55.1028 120.777C55.092 124.373 55.2442 128.643 55.7614 132.076C56.0177 133.778 56.3789 135.377 56.9057 136.604C57.373 137.692 58.2587 139.151 59.9107 139.292Z" fill="url(#paint24_linear_240_1354)"/>
<path fill-rule="evenodd" clip-rule="evenodd" d="M59.9107 139.292C60.7465 139.363 61.4189 139 61.8819 138.57C62.3208 138.163 62.6422 137.639 62.8856 137.137C63.3752 136.128 63.7395 134.801 64.0196 133.445C64.2364 132.371 65.2518 125.665 65.7188 115.012C64.3304 115.012 64.031 114.896 62.8944 115.011C62.8011 115.61 61.8852 130.295 60.9467 132.81C60.6818 134.09 60.3799 135.111 60.0626 135.765C60.0504 135.792 60.0374 135.817 60.0243 135.841C59.9562 135.724 59.8757 135.569 59.7888 135.363C59.4209 134.506 59.1072 133.221 58.8647 131.609C58.382 128.411 58.2307 124.326 58.2427 120.788C58.252 117.358 58.554 112.981 59.1334 109.466C59.4266 107.696 59.7751 106.224 60.1614 105.213C60.2427 104.997 60.3211 104.819 60.3933 104.672C60.5732 105.071 60.5945 104.997 60.7683 105.798C60.6089 104.729 60.9552 106.666 60.7683 105.798C61.9152 105.933 62.9809 106.495 64.0283 106.981C64.2628 108.065 63.8521 105.792 64.0283 106.981C63.7996 105.926 63.4578 103.661 62.9703 102.827C62.4641 101.966 61.5379 101.032 60.0901 101.163C59.1727 101.246 58.5461 101.828 58.1705 102.313C57.7785 102.817 57.475 103.447 57.2294 104.092C56.7313 105.394 56.3421 107.109 56.038 108.954C55.4262 112.664 55.1133 117.211 55.1028 120.777C55.092 124.373 55.2442 128.643 55.7614 132.076C56.0177 133.778 56.3789 135.377 56.9057 136.604C57.373 137.692 58.2587 139.151 59.9107 139.292Z" fill="url(#paint25_radial_240_1354)"/>
<path fill-rule="evenodd" clip-rule="evenodd" d="M59.8798 139.242C60.7156 139.313 61.388 138.95 61.851 138.52C62.29 138.113 62.6113 137.589 62.8548 137.087C63.3443 136.078 63.7086 134.751 63.9887 133.396C64.2055 132.321 65.2203 127.236 65.5291 114.963C64.2995 114.962 63.8163 114.846 62.6796 114.961C62.6757 124.919 61.3156 131.684 61.0837 132.841C60.7882 134.544 60.3887 134.925 60.0555 135.792C60.0927 135.868 60.0688 135.792 59.9934 135.791C59.9254 135.674 59.8448 135.519 59.7579 135.314C59.39 134.456 59.0763 133.171 58.8338 131.559C58.3511 128.361 58.1998 124.276 58.2118 120.738C58.2211 117.308 58.5231 112.931 59.1025 109.416C59.3957 107.646 59.7442 106.174 60.1305 105.163C60.2118 104.948 60.2902 104.769 60.3624 104.622C60.5423 105.021 60.5637 104.947 60.7374 105.748C60.578 104.679 60.9243 106.616 60.7374 105.748C61.8844 105.883 62.9809 106.494 64.0284 106.981C64.2628 108.065 63.8521 105.791 64.0284 106.981C63.7997 105.926 63.427 103.611 62.9394 102.777C62.4333 101.916 61.507 100.983 60.0592 101.114C59.1418 101.196 58.5152 101.778 58.1396 102.264C57.7476 102.767 57.4441 103.398 57.1985 104.042C56.7004 105.344 56.3112 107.059 56.0071 108.904C55.3953 112.614 55.0824 117.161 55.0719 120.727C55.0611 124.324 55.2133 128.593 55.7306 132.026C55.9868 133.729 56.348 135.327 56.8748 136.554C57.3422 137.642 58.2279 139.101 59.8798 139.242Z" fill="url(#paint26_radial_240_1354)"/>
<path fill-rule="evenodd" clip-rule="evenodd" d="M59.9107 139.292C60.7465 139.363 61.4189 139 61.8819 138.57C62.3208 138.163 62.6422 137.639 62.8856 137.137C63.3752 136.128 63.7395 134.801 64.0196 133.445C64.2364 132.371 65.2508 128.213 65.4874 115.012C64.0269 115.011 64.031 114.896 62.8944 115.011C62.2424 128.442 61.0601 132.253 60.9467 132.81C60.6818 134.09 60.3799 135.111 60.0626 135.765C60.0504 135.792 60.0374 135.817 60.0243 135.841C59.9562 135.724 59.8757 135.569 59.7888 135.363C59.4209 134.506 59.1072 133.221 58.8647 131.609C58.382 128.411 58.2307 124.326 58.2427 120.788C58.252 117.358 58.554 112.981 59.1334 109.466C59.4266 107.696 59.7751 106.224 60.1614 105.213C60.2427 104.997 60.3211 104.819 60.3933 104.672C60.5732 105.071 60.5945 104.997 60.7683 105.798C60.6089 104.729 60.9552 106.666 60.7683 105.798C61.9152 105.933 62.9809 106.495 64.0283 106.981C63.7996 105.926 63.4578 103.661 62.9703 102.827C62.4641 101.966 61.5379 101.032 60.0901 101.163C59.1727 101.246 58.5461 101.828 58.1705 102.313C57.7785 102.817 57.475 103.447 57.2294 104.092C56.7313 105.394 56.3421 107.109 56.038 108.954C55.4262 112.664 55.1133 117.211 55.1028 120.777C55.092 124.373 55.2442 128.643 55.7614 132.076C56.0177 133.778 56.3789 135.377 56.9057 136.604C57.373 137.692 58.2587 139.151 59.9107 139.292Z" fill="url(#paint27_radial_240_1354)"/>
<path fill-rule="evenodd" clip-rule="evenodd" d="M59.9107 139.292C60.7465 139.363 61.4189 139 61.8819 138.57C62.3208 138.163 62.6422 137.639 62.8856 137.137C63.3752 136.128 63.7395 134.801 64.0196 133.445C64.2364 132.371 65.4843 122.886 65.4874 115.012C64.3304 115.012 63.8472 114.896 62.7105 115.011C62.7059 126.59 61.0601 132.253 60.9467 132.81C60.6818 134.09 60.3799 135.111 60.0626 135.765C60.0504 135.792 60.0374 135.817 60.0243 135.841C59.9562 135.724 59.8757 135.569 59.7888 135.363C59.4209 134.506 59.1072 133.221 58.8647 131.609C58.382 128.411 58.2307 124.326 58.2427 120.788C58.252 117.358 58.554 112.981 59.1334 109.466C59.4266 107.696 59.7751 106.224 60.1614 105.213C60.2427 104.997 60.3211 104.819 60.3933 104.672C60.5732 105.071 60.7523 105.662 60.9261 106.463C61.1129 107.33 60.6089 104.729 60.7683 105.798C61.9152 105.933 62.9809 106.495 64.0283 106.981C64.2628 108.065 63.8521 105.792 64.0283 106.981C63.7996 105.926 63.4578 103.661 62.9703 102.827C62.4641 101.966 61.5379 101.032 60.0901 101.163C59.1727 101.246 58.5461 101.828 58.1705 102.313C57.7785 102.817 57.475 103.447 57.2294 104.092C56.7313 105.394 56.3421 107.109 56.038 108.954C55.4262 112.664 55.1133 117.211 55.1028 120.777C55.092 124.373 55.2442 128.643 55.7614 132.076C56.0177 133.778 56.3789 135.377 56.9057 136.604C57.373 137.692 58.2587 139.151 59.9107 139.292Z" fill="url(#paint28_radial_240_1354)"/>
<path fill-rule="evenodd" clip-rule="evenodd" d="M59.9107 139.292C60.7465 139.363 61.4189 139 61.8819 138.57C62.3208 138.163 62.6422 137.639 62.8856 137.137C63.3752 136.128 63.7395 134.801 64.0196 133.445C64.2364 132.371 65.7165 120.783 65.4874 115.012C64.0269 115.011 63.8472 114.896 62.7105 115.011C62.7051 128.674 61.0601 132.253 60.9467 132.81C60.6818 134.09 60.3799 135.111 60.0626 135.765C60.0504 135.792 60.0374 135.817 60.0243 135.841C59.9562 135.724 59.8757 135.569 59.7888 135.363C59.4209 134.506 59.1072 133.221 58.8647 131.609C58.382 128.411 58.2307 124.326 58.2427 120.788C58.252 117.358 58.554 112.981 59.1334 109.466C59.4266 107.696 59.7751 106.224 60.1614 105.213C60.2427 104.997 60.3211 104.819 60.3933 104.672C60.5732 105.071 60.5069 104.725 60.6807 105.526C60.5212 104.457 60.8675 106.394 60.6807 105.526C61.8276 105.661 62.9809 106.495 64.0283 106.981C64.2628 108.065 63.8521 105.792 64.0283 106.981C63.7996 105.926 63.4578 103.661 62.9703 102.827C62.4641 101.966 61.5379 101.032 60.0901 101.163C59.1727 101.246 58.5461 101.828 58.1705 102.313C57.7785 102.817 57.475 103.447 57.2294 104.092C56.7313 105.394 56.3421 107.109 56.038 108.954C55.4262 112.664 55.1133 117.211 55.1028 120.777C55.092 124.373 55.2442 128.643 55.7614 132.076C56.0177 133.778 56.3789 135.377 56.9057 136.604C57.373 137.692 58.2587 139.151 59.9107 139.292Z" fill="url(#paint29_radial_240_1354)"/>
<path fill-rule="evenodd" clip-rule="evenodd" d="M59.9107 139.292C60.7465 139.363 61.4189 139 61.8819 138.57C62.3208 138.163 62.6422 137.639 62.8856 137.137C63.3752 136.128 63.7395 134.801 64.0196 133.445C64.5795 130.528 65.0188 129.602 65.4874 115.012C64.3304 115.012 63.8472 114.896 62.7105 115.011C62.011 128.442 61.0601 132.253 60.9467 132.81C60.6818 134.09 60.3799 135.111 60.0626 135.765C60.0504 135.792 60.0374 135.817 60.0243 135.841C59.9562 135.724 59.8757 135.569 59.7888 135.363C59.4209 134.506 59.1072 133.221 58.8647 131.609C58.382 128.411 58.2307 124.326 58.2427 120.788C58.252 117.358 58.554 112.981 59.1334 109.466C59.4266 107.696 59.7751 106.224 60.1614 105.213C60.2427 104.997 60.3211 104.819 60.3933 104.672C60.5732 105.071 60.5945 104.997 60.7683 105.798C60.6089 104.729 60.9552 106.666 60.7683 105.798C61.9152 105.933 62.9839 105.995 64.0314 106.481C64.2658 107.565 63.8551 105.292 64.0314 106.481C63.8027 105.426 63.4578 103.661 62.9703 102.827C62.4641 101.966 61.5379 101.032 60.0901 101.163C59.1727 101.246 58.5461 101.828 58.1705 102.313C57.7785 102.817 57.475 103.447 57.2294 104.092C56.7313 105.394 56.3421 107.109 56.038 108.954C55.4262 112.664 55.1133 117.211 55.1028 120.777C55.092 124.373 55.2442 128.643 55.7614 132.076C56.0177 133.778 56.3789 135.377 56.9057 136.604C57.373 137.692 58.2587 139.151 59.9107 139.292Z" fill="url(#paint30_radial_240_1354)"/>
<g filter="url(#filter12_f_240_1354)">
<path d="M61.534 137.633C61.5761 137.565 61.5893 137.482 61.5708 137.404C61.5522 137.326 61.5035 137.259 61.4352 137.217C61.3669 137.175 61.2847 137.161 61.2066 137.18C61.1286 137.198 61.0611 137.247 61.019 137.315L61.534 137.633ZM55.9569 119.716C55.8436 122.447 56.0083 129.745 57.0809 134.789L57.6708 134.663C56.6121 129.689 56.4486 122.446 56.5608 119.741L55.9569 119.716ZM57.0809 134.789C57.5286 136.894 58.3518 138.007 59.2628 138.385C60.1908 138.77 61.0952 138.344 61.534 137.633L61.019 137.315C60.7138 137.812 60.1089 138.083 59.4934 137.826C58.86 137.564 58.1046 136.7 57.6708 134.663L57.0809 134.789Z" fill="url(#paint31_linear_240_1354)"/>
</g>
<path fill-rule="evenodd" clip-rule="evenodd" d="M59.9107 139.292C60.7465 139.363 61.4189 139 61.8819 138.57C62.3208 138.163 62.6422 137.639 62.8856 137.137C63.3752 136.128 63.7395 134.801 64.0196 133.445C64.5795 130.528 65.0188 129.602 65.4874 115.012C64.3304 115.012 63.8472 114.896 62.7105 115.011C62.011 128.442 61.0601 132.253 60.9467 132.81C60.6818 134.09 60.3799 135.111 60.0626 135.765C60.0504 135.792 60.0373 135.817 60.0243 135.841C59.9562 135.724 59.8757 135.569 59.7888 135.363C59.4209 134.506 59.1072 133.221 58.8647 131.609C58.382 128.411 58.2307 124.326 58.2427 120.788C58.252 117.358 58.554 112.981 59.1334 109.466C59.4266 107.696 59.7751 106.224 60.1614 105.213C60.2427 104.997 60.3211 104.819 60.3933 104.672C60.5732 105.071 60.4248 104.412 60.5986 105.213C60.4392 104.144 60.7854 106.081 60.5986 105.213C61.7455 105.348 62.9839 105.995 64.0314 106.481C64.2658 107.565 63.8551 105.292 64.0314 106.481C63.8027 105.426 63.4578 103.661 62.9703 102.827C62.4641 101.966 61.5379 101.032 60.0901 101.163C59.1727 101.246 58.5461 101.828 58.1705 102.313C57.7785 102.817 57.475 103.447 57.2294 104.092C56.7313 105.394 56.3421 107.109 56.038 108.954C55.4262 112.664 55.1133 117.211 55.1028 120.777C55.092 124.373 55.2442 128.643 55.7614 132.076C56.0177 133.778 56.3789 135.377 56.9057 136.604C57.373 137.692 58.2587 139.151 59.9107 139.292Z" fill="url(#paint32_radial_240_1354)"/>
</g>
<path d="M67.1457 105.106C65.9827 107.889 62.7833 109.203 59.9997 108.04" stroke="#E4E4DE"/>
<path d="M60.1954 133.886C62.5001 134 63.0001 134 64.0001 136.5" stroke="url(#paint33_linear_240_1354)" stroke-width="2"/>
<defs>
<filter id="filter0_dddddd_240_1354" x="0" y="0" width="143.063" height="174.366" filterUnits="userSpaceOnUse" color-interpolation-filters="sRGB">
<feFlood flood-opacity="0" result="BackgroundImageFix"/>
<feColorMatrix in="SourceAlpha" type="matrix" values="0 0 0 0 0 0 0 0 0 0 0 0 0 0 0 0 0 0 127 0" result="hardAlpha"/>
<feOffset/>
<feColorMatrix type="matrix" values="0 0 0 0 0 0 0 0 0 0 0 0 0 0 0 0 0 0 0.1 0"/>
<feBlend mode="normal" in2="BackgroundImageFix" result="effect1_dropShadow_240_1354"/>
<feColorMatrix in="SourceAlpha" type="matrix" values="0 0 0 0 0 0 0 0 0 0 0 0 0 0 0 0 0 0 127 0" result="hardAlpha"/>
<feOffset dy="3"/>
<feGaussianBlur stdDeviation="3"/>
<feColorMatrix type="matrix" values="0 0 0 0 0 0 0 0 0 0 0 0 0 0 0 0 0 0 0.1 0"/>
<feBlend mode="normal" in2="effect1_dropShadow_240_1354" result="effect2_dropShadow_240_1354"/>
<feColorMatrix in="SourceAlpha" type="matrix" values="0 0 0 0 0 0 0 0 0 0 0 0 0 0 0 0 0 0 127 0" result="hardAlpha"/>
<feOffset dy="11"/>
<feGaussianBlur stdDeviation="5.5"/>
<feColorMatrix type="matrix" values="0 0 0 0 0 0 0 0 0 0 0 0 0 0 0 0 0 0 0.09 0"/>
<feBlend mode="normal" in2="effect2_dropShadow_240_1354" result="effect3_dropShadow_240_1354"/>
<feColorMatrix in="SourceAlpha" type="matrix" values="0 0 0 0 0 0 0 0 0 0 0 0 0 0 0 0 0 0 127 0" result="hardAlpha"/>
<feOffset dy="24"/>
<feGaussianBlur stdDeviation="7"/>
<feColorMatrix type="matrix" values="0 0 0 0 0 0 0 0 0 0 0 0 0 0 0 0 0 0 0.05 0"/>
<feBlend mode="normal" in2="effect3_dropShadow_240_1354" result="effect4_dropShadow_240_1354"/>
<feColorMatrix in="SourceAlpha" type="matrix" values="0 0 0 0 0 0 0 0 0 0 0 0 0 0 0 0 0 0 127 0" result="hardAlpha"/>
<feOffset dy="42"/>
<feGaussianBlur stdDeviation="8.5"/>
<feColorMatrix type="matrix" values="0 0 0 0 0 0 0 0 0 0 0 0 0 0 0 0 0 0 0.01 0"/>
<feBlend mode="normal" in2="effect4_dropShadow_240_1354" result="effect5_dropShadow_240_1354"/>
<feColorMatrix in="SourceAlpha" type="matrix" values="0 0 0 0 0 0 0 0 0 0 0 0 0 0 0 0 0 0 127 0" result="hardAlpha"/>
<feOffset dx="-10" dy="-10"/>
<feGaussianBlur stdDeviation="10"/>
<feComposite in2="hardAlpha" operator="out"/>
<feColorMatrix type="matrix" values="0 0 0 0 1 0 0 0 0 1 0 0 0 0 1 0 0 0 0.5 0"/>
<feBlend mode="normal" in2="effect5_dropShadow_240_1354" result="effect6_dropShadow_240_1354"/>
<feBlend mode="normal" in="SourceGraphic" in2="effect6_dropShadow_240_1354" result="shape"/>
</filter>
<filter id="filter1_i_240_1354" x="57" y="98" width="12" height="10.5" filterUnits="userSpaceOnUse" color-interpolation-filters="sRGB">
<feFlood flood-opacity="0" result="BackgroundImageFix"/>
<feBlend mode="normal" in="SourceGraphic" in2="BackgroundImageFix" result="shape"/>
<feColorMatrix in="SourceAlpha" type="matrix" values="0 0 0 0 0 0 0 0 0 0 0 0 0 0 0 0 0 0 127 0" result="hardAlpha"/>
<feMorphology radius="1" operator="erode" in="SourceAlpha" result="effect1_innerShadow_240_1354"/>
<feOffset dx="2" dy="0.5"/>
<feGaussianBlur stdDeviation="2"/>
<feComposite in2="hardAlpha" operator="arithmetic" k2="-1" k3="1"/>
<feColorMatrix type="matrix" values="0 0 0 0 0 0 0 0 0 0 0 0 0 0 0 0 0 0 0.85 0"/>
<feBlend mode="normal" in2="shape" result="effect1_innerShadow_240_1354"/>
</filter>
<filter id="filter2_dii_240_1354" x="43.569" y="146.577" width="30.7513" height="30.7663" filterUnits="userSpaceOnUse" color-interpolation-filters="sRGB">
<feFlood flood-opacity="0" result="BackgroundImageFix"/>
<feColorMatrix in="SourceAlpha" type="matrix" values="0 0 0 0 0 0 0 0 0 0 0 0 0 0 0 0 0 0 127 0" result="hardAlpha"/>
<feOffset dy="3"/>
<feGaussianBlur stdDeviation="2"/>
<feComposite in2="hardAlpha" operator="out"/>
<feColorMatrix type="matrix" values="0 0 0 0 0 0 0 0 0 0 0 0 0 0 0 0 0 0 0.25 0"/>
<feBlend mode="normal" in2="BackgroundImageFix" result="effect1_dropShadow_240_1354"/>
<feBlend mode="normal" in="SourceGraphic" in2="effect1_dropShadow_240_1354" result="shape"/>
<feColorMatrix in="SourceAlpha" type="matrix" values="0 0 0 0 0 0 0 0 0 0 0 0 0 0 0 0 0 0 127 0" result="hardAlpha"/>
<feOffset dy="1"/>
<feGaussianBlur stdDeviation="2"/>
<feComposite in2="hardAlpha" operator="arithmetic" k2="-1" k3="1"/>
<feColorMatrix type="matrix" values="0 0 0 0 0 0 0 0 0 0 0 0 0 0 0 0 0 0 0.25 0"/>
<feBlend mode="normal" in2="shape" result="effect2_innerShadow_240_1354"/>
<feColorMatrix in="SourceAlpha" type="matrix" values="0 0 0 0 0 0 0 0 0 0 0 0 0 0 0 0 0 0 127 0" result="hardAlpha"/>
<feOffset dy="-1"/>
<feGaussianBlur stdDeviation="2"/>
<feComposite in2="hardAlpha" operator="arithmetic" k2="-1" k3="1"/>
<feColorMatrix type="matrix" values="0 0 0 0 0 0 0 0 0 0 0 0 0 0 0 0 0 0 0.25 0"/>
<feBlend mode="normal" in2="effect2_innerShadow_240_1354" result="effect3_innerShadow_240_1354"/>
</filter>
<filter id="filter3_iii_240_1354" x="50.4553" y="151.216" width="17.188" height="16.1837" filterUnits="userSpaceOnUse" color-interpolation-filters="sRGB">
<feFlood flood-opacity="0" result="BackgroundImageFix"/>
<feBlend mode="normal" in="SourceGraphic" in2="BackgroundImageFix" result="shape"/>
<feColorMatrix in="SourceAlpha" type="matrix" values="0 0 0 0 0 0 0 0 0 0 0 0 0 0 0 0 0 0 127 0" result="hardAlpha"/>
<feOffset dy="-0.5"/>
<feGaussianBlur stdDeviation="1.5"/>
<feComposite in2="hardAlpha" operator="arithmetic" k2="-1" k3="1"/>
<feColorMatrix type="matrix" values="0 0 0 0 0.772549 0 0 0 0 0.494118 0 0 0 0 0.282353 0 0 0 1 0"/>
<feBlend mode="normal" in2="shape" result="effect1_innerShadow_240_1354"/>
<feColorMatrix in="SourceAlpha" type="matrix" values="0 0 0 0 0 0 0 0 0 0 0 0 0 0 0 0 0 0 127 0" result="hardAlpha"/>
<feOffset dx="-1.25" dy="1.25"/>
<feGaussianBlur stdDeviation="0.75"/>
<feComposite in2="hardAlpha" operator="arithmetic" k2="-1" k3="1"/>
<feColorMatrix type="matrix" values="0 0 0 0 1 0 0 0 0 0.952941 0 0 0 0 0.286275 0 0 0 1 0"/>
<feBlend mode="normal" in2="effect1_innerShadow_240_1354" result="effect2_innerShadow_240_1354"/>
<feColorMatrix in="SourceAlpha" type="matrix" values="0 0 0 0 0 0 0 0 0 0 0 0 0 0 0 0 0 0 127 0" result="hardAlpha"/>
<feOffset dx="1.5" dy="-0.5"/>
<feGaussianBlur stdDeviation="0.75"/>
<feComposite in2="hardAlpha" operator="arithmetic" k2="-1" k3="1"/>
<feColorMatrix type="matrix" values="0 0 0 0 0.698039 0 0 0 0 0.537255 0 0 0 0 0.192157 0 0 0 1 0"/>
<feBlend mode="normal" in2="effect2_innerShadow_240_1354" result="effect3_innerShadow_240_1354"/>
</filter>
<filter id="filter4_i_240_1354" x="58.4272" y="148.612" width="1.56122" height="1.56225" filterUnits="userSpaceOnUse" color-interpolation-filters="sRGB">
<feFlood flood-opacity="0" result="BackgroundImageFix"/>
<feBlend mode="normal" in="SourceGraphic" in2="BackgroundImageFix" result="shape"/>
<feColorMatrix in="SourceAlpha" type="matrix" values="0 0 0 0 0 0 0 0 0 0 0 0 0 0 0 0 0 0 127 0" result="hardAlpha"/>
<feMorphology radius="0.1" operator="erode" in="SourceAlpha" result="effect1_innerShadow_240_1354"/>
<feOffset dx="0.01" dy="0.01"/>
<feGaussianBlur stdDeviation="1"/>
<feComposite in2="hardAlpha" operator="arithmetic" k2="-1" k3="1"/>
<feColorMatrix type="matrix" values="0 0 0 0 0 0 0 0 0 0 0 0 0 0 0 0 0 0 0.85 0"/>
<feBlend mode="normal" in2="shape" result="effect1_innerShadow_240_1354"/>
</filter>
<filter id="filter5_f_240_1354" x="47.1026" y="147.112" width="23.683" height="23.6967" filterUnits="userSpaceOnUse" color-interpolation-filters="sRGB">
<feFlood flood-opacity="0" result="BackgroundImageFix"/>
<feBlend mode="normal" in="SourceGraphic" in2="BackgroundImageFix" result="shape"/>
<feGaussianBlur stdDeviation="0.75" result="effect1_foregroundBlur_240_1354"/>
</filter>
<filter id="filter6_f_240_1354" x="52.4537" y="130.5" width="14.9934" height="16" filterUnits="userSpaceOnUse" color-interpolation-filters="sRGB">
<feFlood flood-opacity="0" result="BackgroundImageFix"/>
<feBlend mode="normal" in="SourceGraphic" in2="BackgroundImageFix" result="shape"/>
<feGaussianBlur stdDeviation="1" result="effect1_foregroundBlur_240_1354"/>
</filter>
<filter id="filter7_f_240_1354" x="57.252" y="144.616" width="3.21043" height="6.13654" filterUnits="userSpaceOnUse" color-interpolation-filters="sRGB">
<feFlood flood-opacity="0" result="BackgroundImageFix"/>
<feBlend mode="normal" in="SourceGraphic" in2="BackgroundImageFix" result="shape"/>
<feGaussianBlur stdDeviation="0.5" result="effect1_foregroundBlur_240_1354"/>
</filter>
<filter id="filter8_i_240_1354" x="59.06" y="132.468" width="6.7101" height="7.0321" filterUnits="userSpaceOnUse" color-interpolation-filters="sRGB">
<feFlood flood-opacity="0" result="BackgroundImageFix"/>
<feBlend mode="normal" in="SourceGraphic" in2="BackgroundImageFix" result="shape"/>
<feColorMatrix in="SourceAlpha" type="matrix" values="0 0 0 0 0 0 0 0 0 0 0 0 0 0 0 0 0 0 127 0" result="hardAlpha"/>
<feOffset dy="1"/>
<feGaussianBlur stdDeviation="2"/>
<feComposite in2="hardAlpha" operator="arithmetic" k2="-1" k3="1"/>
<feColorMatrix type="matrix" values="0 0 0 0 0.937255 0 0 0 0 0.639216 0 0 0 0 0.188235 0 0 0 1 0"/>
<feBlend mode="normal" in2="shape" result="effect1_innerShadow_240_1354"/>
</filter>
<filter id="filter9_i_240_1354" x="60.565" y="104.569" width="3.62247" height="4.47363" filterUnits="userSpaceOnUse" color-interpolation-filters="sRGB">
<feFlood flood-opacity="0" result="BackgroundImageFix"/>
<feBlend mode="normal" in="SourceGraphic" in2="BackgroundImageFix" result="shape"/>
<feColorMatrix in="SourceAlpha" type="matrix" values="0 0 0 0 0 0 0 0 0 0 0 0 0 0 0 0 0 0 127 0" result="hardAlpha"/>
<feOffset dy="1"/>
<feGaussianBlur stdDeviation="2"/>
<feComposite in2="hardAlpha" operator="arithmetic" k2="-1" k3="1"/>
<feColorMatrix type="matrix" values="0 0 0 0 0.937255 0 0 0 0 0.639216 0 0 0 0 0.188235 0 0 0 1 0"/>
<feBlend mode="normal" in2="shape" result="effect1_innerShadow_240_1354"/>
</filter>
<filter id="filter10_ddddd_240_1354" x="47.7449" y="100.101" width="23.9739" height="64.6418" filterUnits="userSpaceOnUse" color-interpolation-filters="sRGB">
<feFlood flood-opacity="0" result="BackgroundImageFix"/>
<feColorMatrix in="SourceAlpha" type="matrix" values="0 0 0 0 0 0 0 0 0 0 0 0 0 0 0 0 0 0 127 0" result="hardAlpha"/>
<feOffset/>
<feColorMatrix type="matrix" values="0 0 0 0 0 0 0 0 0 0 0 0 0 0 0 0 0 0 0.1 0"/>
<feBlend mode="normal" in2="BackgroundImageFix" result="effect1_dropShadow_240_1354"/>
<feColorMatrix in="SourceAlpha" type="matrix" values="0 0 0 0 0 0 0 0 0 0 0 0 0 0 0 0 0 0 127 0" result="hardAlpha"/>
<feOffset dy="1"/>
<feGaussianBlur stdDeviation="1"/>
<feColorMatrix type="matrix" values="0 0 0 0 0 0 0 0 0 0 0 0 0 0 0 0 0 0 0.1 0"/>
<feBlend mode="normal" in2="effect1_dropShadow_240_1354" result="effect2_dropShadow_240_1354"/>
<feColorMatrix in="SourceAlpha" type="matrix" values="0 0 0 0 0 0 0 0 0 0 0 0 0 0 0 0 0 0 127 0" result="hardAlpha"/>
<feOffset dy="4"/>
<feGaussianBlur stdDeviation="2"/>
<feColorMatrix type="matrix" values="0 0 0 0 0 0 0 0 0 0 0 0 0 0 0 0 0 0 0.09 0"/>
<feBlend mode="normal" in2="effect2_dropShadow_240_1354" result="effect3_dropShadow_240_1354"/>
<feColorMatrix in="SourceAlpha" type="matrix" values="0 0 0 0 0 0 0 0 0 0 0 0 0 0 0 0 0 0 127 0" result="hardAlpha"/>
<feOffset dy="8"/>
<feGaussianBlur stdDeviation="2.5"/>
<feColorMatrix type="matrix" values="0 0 0 0 0 0 0 0 0 0 0 0 0 0 0 0 0 0 0.05 0"/>
<feBlend mode="normal" in2="effect3_dropShadow_240_1354" result="effect4_dropShadow_240_1354"/>
<feColorMatrix in="SourceAlpha" type="matrix" values="0 0 0 0 0 0 0 0 0 0 0 0 0 0 0 0 0 0 127 0" result="hardAlpha"/>
<feOffset dy="14"/>
<feGaussianBlur stdDeviation="3"/>
<feColorMatrix type="matrix" values="0 0 0 0 0 0 0 0 0 0 0 0 0 0 0 0 0 0 0.01 0"/>
<feBlend mode="normal" in2="effect4_dropShadow_240_1354" result="effect5_dropShadow_240_1354"/>
<feBlend mode="normal" in="SourceGraphic" in2="effect5_dropShadow_240_1354" result="shape"/>
</filter>
<filter id="filter11_i_240_1354" x="53.7449" y="133.532" width="11.7511" height="12.2115" filterUnits="userSpaceOnUse" color-interpolation-filters="sRGB">
<feFlood flood-opacity="0" result="BackgroundImageFix"/>
<feBlend mode="normal" in="SourceGraphic" in2="BackgroundImageFix" result="shape"/>
<feColorMatrix in="SourceAlpha" type="matrix" values="0 0 0 0 0 0 0 0 0 0 0 0 0 0 0 0 0 0 127 0" result="hardAlpha"/>
<feOffset dy="1"/>
<feGaussianBlur stdDeviation="2"/>
<feComposite in2="hardAlpha" operator="arithmetic" k2="-1" k3="1"/>
<feColorMatrix type="matrix" values="0 0 0 0 0.937255 0 0 0 0 0.639216 0 0 0 0 0.188235 0 0 0 1 0"/>
<feBlend mode="normal" in2="shape" result="effect1_innerShadow_240_1354"/>
</filter>
<filter id="filter12_f_240_1354" x="54.9263" y="118.716" width="7.65263" height="20.814" filterUnits="userSpaceOnUse" color-interpolation-filters="sRGB">
<feFlood flood-opacity="0" result="BackgroundImageFix"/>
<feBlend mode="normal" in="SourceGraphic" in2="BackgroundImageFix" result="shape"/>
<feGaussianBlur stdDeviation="0.5" result="effect1_foregroundBlur_240_1354"/>
</filter>
<radialGradient id="paint0_radial_240_1354" cx="0" cy="0" r="1" gradientUnits="userSpaceOnUse" gradientTransform="translate(30 63.506) rotate(-0.54207) scale(45.1156 71.8254)">
<stop stop-color="#91BECA"/>
<stop offset="1" stop-color="#91BECA" stop-opacity="0"/>
</radialGradient>
<radialGradient id="paint1_radial_240_1354" cx="0" cy="0" r="1" gradientUnits="userSpaceOnUse" gradientTransform="translate(70.4513 52.1417) rotate(83.163) scale(63.6767 41.6245)">
<stop stop-color="#A67ABE"/>
<stop offset="1" stop-color="#A67ABE" stop-opacity="0"/>
</radialGradient>
<radialGradient id="paint2_radial_240_1354" cx="0" cy="0" r="1" gradientUnits="userSpaceOnUse" gradientTransform="translate(92.0186 55.0228) rotate(89.9363) scale(60.3428 35.8411)">
<stop stop-color="#FD747C"/>
<stop offset="1" stop-color="#FD747C" stop-opacity="0"/>
</radialGradient>
<radialGradient id="paint3_radial_240_1354" cx="0" cy="0" r="1" gradientUnits="userSpaceOnUse" gradientTransform="translate(118.886 51.5014) rotate(86.314) scale(45.391 32.4483)">
<stop stop-color="#FFE072"/>
<stop offset="1" stop-color="#FFE072" stop-opacity="0"/>
</radialGradient>
<radialGradient id="paint4_radial_240_1354" cx="0" cy="0" r="1" gradientUnits="userSpaceOnUse" gradientTransform="translate(126.063 115.366) rotate(-167.717) scale(49.1569 66.3484)">
<stop stop-color="#FFB472"/>
<stop offset="0.411458" stop-color="#FFB472"/>
<stop offset="1" stop-color="#FFB472" stop-opacity="0"/>
</radialGradient>
<radialGradient id="paint5_radial_240_1354" cx="0" cy="0" r="1" gradientUnits="userSpaceOnUse" gradientTransform="translate(65.9567 115.366) rotate(-118.198) scale(76.0963 95.0466)">
<stop stop-color="#B5BD9D"/>
<stop offset="0.489583" stop-color="#B5BD9D"/>
<stop offset="1" stop-color="#B5BD9D" stop-opacity="0"/>
</radialGradient>
<radialGradient id="paint6_radial_240_1354" cx="0" cy="0" r="1" gradientUnits="userSpaceOnUse" gradientTransform="translate(63.3212 155.322) rotate(132.92) scale(10.335 10.2273)">
<stop stop-color="#FAC632"/>
<stop offset="1" stop-color="#F7C632"/>
</radialGradient>
<radialGradient id="paint7_radial_240_1354" cx="0" cy="0" r="1" gradientUnits="userSpaceOnUse" gradientTransform="translate(58.9246 158.933) rotate(90) scale(7.21682 7.21908)">
<stop stop-color="#DDBA38"/>
<stop offset="1" stop-color="#DDBA38" stop-opacity="0"/>
</radialGradient>
<radialGradient id="paint8_radial_240_1354" cx="0" cy="0" r="1" gradientUnits="userSpaceOnUse" gradientTransform="translate(54.2817 155.898) rotate(74.0647) scale(1.17197 3.90896)">
<stop stop-color="#DDBA38"/>
<stop offset="1" stop-color="#DDBA38" stop-opacity="0"/>
</radialGradient>
<radialGradient id="paint9_radial_240_1354" cx="0" cy="0" r="1" gradientUnits="userSpaceOnUse" gradientTransform="translate(51.7052 156.642) rotate(16.0929) scale(2.03273 2.03586)">
<stop stop-color="#B5953A"/>
<stop offset="1" stop-color="#B5953A" stop-opacity="0"/>
</radialGradient>
<radialGradient id="paint10_radial_240_1354" cx="0" cy="0" r="1" gradientUnits="userSpaceOnUse" gradientTransform="translate(55.227 166.623) rotate(-58.513) scale(1.46311 1.4641)">
<stop stop-color="#C47E42"/>
<stop offset="1" stop-color="#C47E42" stop-opacity="0"/>
</radialGradient>
<radialGradient id="paint11_radial_240_1354" cx="0" cy="0" r="1" gradientUnits="userSpaceOnUse" gradientTransform="translate(66.6898 156.722) rotate(150.735) scale(1.15264 1.51611)">
<stop stop-color="#FFF246"/>
<stop offset="1" stop-color="#FFF246" stop-opacity="0"/>
</radialGradient>
<linearGradient id="paint12_linear_240_1354" x1="59.7862" y1="145.949" x2="56.7046" y2="147.385" gradientUnits="userSpaceOnUse">
<stop stop-color="#E6AF22"/>
<stop offset="1" stop-color="#FFFB4B"/>
</linearGradient>
<radialGradient id="paint13_radial_240_1354" cx="0" cy="0" r="1" gradientUnits="userSpaceOnUse" gradientTransform="translate(59.4611 147.953) rotate(87.7575) scale(1.97404 0.558763)">
<stop offset="0.101" stop-color="#F39D2B"/>
<stop offset="1" stop-color="#F39D2B" stop-opacity="0"/>
</radialGradient>
<radialGradient id="paint14_radial_240_1354" cx="0" cy="0" r="1" gradientUnits="userSpaceOnUse" gradientTransform="translate(60.0672 147.739) rotate(102.677) scale(1.83818 0.936078)">
<stop stop-color="#F19C20"/>
<stop offset="1" stop-color="#F19C20" stop-opacity="0"/>
</radialGradient>
<radialGradient id="paint15_radial_240_1354" cx="0" cy="0" r="1" gradientUnits="userSpaceOnUse" gradientTransform="translate(58.6333 141.729) rotate(40.7606) scale(1.14919 4.67313)">
<stop stop-color="#D08E28"/>
<stop offset="1" stop-color="#D08E28" stop-opacity="0"/>
</radialGradient>
<radialGradient id="paint16_radial_240_1354" cx="0" cy="0" r="1" gradientUnits="userSpaceOnUse" gradientTransform="translate(59.2933 142.516) rotate(-74.0962) scale(0.581144 0.141026)">
<stop stop-color="#E9C441"/>
<stop offset="1" stop-color="#E9AF41" stop-opacity="0"/>
</radialGradient>
<radialGradient id="paint17_radial_240_1354" cx="0" cy="0" r="1" gradientUnits="userSpaceOnUse" gradientTransform="translate(59.6807 143.452) rotate(-99.5779) scale(0.920306 0.240628)">
<stop stop-color="#F1D338"/>
<stop offset="1" stop-color="#F1B338" stop-opacity="0"/>
</radialGradient>
<radialGradient id="paint18_radial_240_1354" cx="0" cy="0" r="1" gradientUnits="userSpaceOnUse" gradientTransform="translate(59.1762 148.243) rotate(-96.8547) scale(1.56178 0.44104)">
<stop offset="0.154" stop-color="#ECA53B"/>
<stop offset="1" stop-color="#ECA53B" stop-opacity="0"/>
</radialGradient>
<radialGradient id="paint19_radial_240_1354" cx="0" cy="0" r="1" gradientUnits="userSpaceOnUse" gradientTransform="translate(59.1762 148.243) rotate(-96.8547) scale(1.56178 0.44104)">
<stop offset="0.154" stop-color="#ECA53B"/>
<stop offset="1" stop-color="#ECA53B" stop-opacity="0"/>
</radialGradient>
<radialGradient id="paint20_radial_240_1354" cx="0" cy="0" r="1" gradientUnits="userSpaceOnUse" gradientTransform="translate(59.1762 148.243) rotate(-96.8547) scale(1.56178 0.44104)">
<stop offset="0.154" stop-color="#ECA53B"/>
<stop offset="1" stop-color="#ECA53B" stop-opacity="0"/>
</radialGradient>
<linearGradient id="paint21_linear_240_1354" x1="58.1829" y1="147.708" x2="58.2331" y2="145.274" gradientUnits="userSpaceOnUse">
<stop stop-color="#FFEF33"/>
<stop offset="1" stop-color="#FFEF33" stop-opacity="0"/>
</linearGradient>
<linearGradient id="paint22_linear_240_1354" x1="59.9787" y1="147.836" x2="59.9787" y2="149.129" gradientUnits="userSpaceOnUse">
<stop stop-color="#B5B4B4"/>
<stop offset="0.22194" stop-color="#C6C4C4"/>
<stop offset="1" stop-color="#E9E8E7"/>
</linearGradient>
<linearGradient id="paint23_linear_240_1354" x1="60.7484" y1="147.924" x2="60.2435" y2="149.335" gradientUnits="userSpaceOnUse">
<stop stop-color="#B1AFAF"/>
<stop offset="0.420916" stop-color="#C6C4C4"/>
<stop offset="0.632852" stop-color="#D3D2D2"/>
<stop offset="1" stop-color="#DDDCDB"/>
</linearGradient>
<linearGradient id="paint24_linear_240_1354" x1="62.7894" y1="121.444" x2="49.1269" y2="127.879" gradientUnits="userSpaceOnUse">
<stop stop-color="#E6AF22"/>
<stop offset="1" stop-color="#FFFB4B"/>
</linearGradient>
<radialGradient id="paint25_radial_240_1354" cx="0" cy="0" r="1" gradientUnits="userSpaceOnUse" gradientTransform="translate(61.4287 130.453) rotate(87.0877) scale(8.93088 2.51728)">
<stop offset="0.101" stop-color="#F39D2B"/>
<stop offset="1" stop-color="#F39D2B" stop-opacity="0"/>
</radialGradient>
<radialGradient id="paint26_radial_240_1354" cx="0" cy="0" r="1" gradientUnits="userSpaceOnUse" gradientTransform="translate(64.1568 129.57) rotate(102.105) scale(8.22814 4.26225)">
<stop stop-color="#F19C20"/>
<stop offset="1" stop-color="#F19C20" stop-opacity="0"/>
</radialGradient>
<radialGradient id="paint27_radial_240_1354" cx="0" cy="0" r="1" gradientUnits="userSpaceOnUse" gradientTransform="translate(57.3604 102.229) rotate(41.4561) scale(5.29639 20.6663)">
<stop stop-color="#D08E28"/>
<stop offset="1" stop-color="#D08E28" stop-opacity="0"/>
</radialGradient>
<radialGradient id="paint28_radial_240_1354" cx="0" cy="0" r="1" gradientUnits="userSpaceOnUse" gradientTransform="translate(60.3817 105.873) rotate(-74.605) scale(2.59587 0.643488)">
<stop stop-color="#E9C441"/>
<stop offset="1" stop-color="#E9AF41" stop-opacity="0"/>
</radialGradient>
<radialGradient id="paint29_radial_240_1354" cx="0" cy="0" r="1" gradientUnits="userSpaceOnUse" gradientTransform="translate(62.1803 110.154) rotate(-100.179) scale(4.18518 1.07847)">
<stop stop-color="#F1D338"/>
<stop offset="1" stop-color="#F1B338" stop-opacity="0"/>
</radialGradient>
<radialGradient id="paint30_radial_240_1354" cx="0" cy="0" r="1" gradientUnits="userSpaceOnUse" gradientTransform="translate(60.1579 131.726) rotate(-97.4898) scale(7.08901 1.9804)">
<stop offset="0.154" stop-color="#ECA53B"/>
<stop offset="1" stop-color="#ECA53B" stop-opacity="0"/>
</radialGradient>
<linearGradient id="paint31_linear_240_1354" x1="55.6998" y1="129.165" x2="56.2549" y2="118.189" gradientUnits="userSpaceOnUse">
<stop stop-color="#FFEF33"/>
<stop offset="1" stop-color="#FFEF33" stop-opacity="0"/>
</linearGradient>
<radialGradient id="paint32_radial_240_1354" cx="0" cy="0" r="1" gradientUnits="userSpaceOnUse" gradientTransform="translate(60.1579 131.726) rotate(-97.4898) scale(7.08901 1.9804)">
<stop offset="0.154" stop-color="#ECA53B"/>
<stop offset="1" stop-color="#ECA53B" stop-opacity="0"/>
</radialGradient>
<linearGradient id="paint33_linear_240_1354" x1="60.0319" y1="134.549" x2="64.2262" y2="135.584" gradientUnits="userSpaceOnUse">
<stop stop-color="#F0AF31"/>
<stop offset="1" stop-color="#F1AE32"/>
</linearGradient>
</defs>
</svg>
