<svg width="154" height="154" viewBox="0 0 154 154" fill="none" xmlns="http://www.w3.org/2000/svg">
<path d="M128.333 77.0002V36.8896C128.334 36.3831 128.234 35.8815 128.04 35.4135C127.847 34.9455 127.562 34.5204 127.204 34.1625L107.004 13.9628C106.283 13.2406 105.304 12.8344 104.284 12.8335H29.5166C28.4955 12.8335 27.5163 13.2391 26.7943 13.9611C26.0722 14.6832 25.6666 15.6624 25.6666 16.6835V137.317C25.6666 138.338 26.0722 139.317 26.7943 140.039C27.5163 140.761 28.4955 141.167 29.5166 141.167H70.5833M51.3333 64.1668H102.667M51.3333 38.5002H77M51.3333 89.8335H70.5833" stroke="#200824" stroke-width="3" stroke-linecap="round" stroke-linejoin="round"/>
<path d="M104.63 109.809L110.463 97.4437C110.62 97.0902 110.877 96.7899 111.201 96.5792C111.526 96.3685 111.905 96.2563 112.292 96.2563C112.679 96.2563 113.057 96.3685 113.382 96.5792C113.706 96.7899 113.963 97.0902 114.12 97.4437L119.96 109.809L132.998 111.804C134.673 112.061 135.34 114.217 134.134 115.449L124.695 125.074L126.922 138.664C127.204 140.41 125.452 141.744 123.957 140.917L112.292 134.5L100.626 140.917C99.1246 141.744 97.3793 140.41 97.6617 138.664L99.8882 125.074L90.4557 115.449C89.2366 114.217 89.9103 112.061 91.5851 111.804L104.63 109.809ZM102.667 12.8335V34.6502C102.667 35.6712 103.072 36.6505 103.794 37.3725C104.516 38.0945 105.496 38.5002 106.517 38.5002H128.333" fill="white" fill-opacity="0.3"/>
<path d="M102.667 12.8335V34.6502C102.667 35.6712 103.072 36.6505 103.794 37.3725C104.516 38.0945 105.496 38.5002 106.517 38.5002H128.333M104.63 109.809L110.463 97.4437C110.62 97.0902 110.877 96.7899 111.201 96.5792C111.526 96.3685 111.905 96.2563 112.292 96.2563C112.679 96.2563 113.057 96.3685 113.382 96.5792C113.706 96.7899 113.963 97.0902 114.12 97.4437L119.96 109.809L132.998 111.804C134.673 112.061 135.34 114.217 134.134 115.449L124.695 125.074L126.922 138.664C127.204 140.41 125.452 141.744 123.957 140.917L112.292 134.5L100.626 140.917C99.1246 141.744 97.3793 140.41 97.6617 138.664L99.8882 125.074L90.4557 115.449C89.2366 114.217 89.9103 112.061 91.5851 111.804L104.63 109.809Z" stroke="#200824" stroke-width="3" stroke-linecap="round" stroke-linejoin="round"/>
<path d="M112.113 126.517C112.26 126.664 112.497 126.664 112.644 126.517L115.03 124.131C115.177 123.984 115.177 123.747 115.03 123.6C114.884 123.454 114.646 123.454 114.5 123.6L112.378 125.722L110.257 123.6C110.111 123.454 109.873 123.454 109.727 123.6C109.58 123.747 109.58 123.984 109.727 124.131L112.113 126.517ZM112.003 113.766L112.003 126.252L112.753 126.252L112.753 113.766L112.003 113.766Z" fill="#200824"/>
</svg>
